<?xml version="1.0" encoding="utf-8"?>
<!-- Generator: Adobe Illustrator 23.0.0, SVG Export Plug-In . SVG Version: 6.00 Build 0)  -->
<svg version="1.1" id="Layer_1" xmlns="http://www.w3.org/2000/svg" xmlns:xlink="http://www.w3.org/1999/xlink" x="0px" y="0px"
	 viewBox="0 0 1000 1000" style="enable-background:new 0 0 1000 1000;" xml:space="preserve">
<style type="text/css">
	.st0{fill:#FFFFFF;}
	.st1{fill:#EEFFF3;}
	.st2{fill:#68B480;}
	.st3{fill:#EBF6E6;}
	.st4{fill:#3D9902;}
	.st5{fill:#D6D3D3;}
	.st6{fill:#F4F2F2;}
	.st7{fill:#785298;}
	.st8{fill:#FF7B5B;}
	.st9{fill:#F2A682;}
	.st10{fill:#112129;}
	.st11{fill:#22343D;}
	.st12{fill:#FFC5B1;}
	.st13{fill:#745360;}
	.st14{fill:#FFB19F;}
	.st15{fill:#FFA091;}
	.st16{fill:#654286;}
	.st17{fill:#5B5974;}
	.st18{fill:none;stroke:#BABB87;stroke-width:3;stroke-linecap:round;stroke-linejoin:round;stroke-miterlimit:10;}
	.st19{fill:#519F8D;}
	.st20{fill:#192A40;}
	.st21{fill:#6752FF;}
	.st22{fill:#6DCC88;}
	
		.st23{opacity:0.25;fill:none;stroke:#FFFFFF;stroke-width:0.5946;stroke-linecap:round;stroke-linejoin:round;stroke-miterlimit:10;}
	.st24{fill:url(#SVGID_1_);}
	.st25{fill:url(#SVGID_2_);}
	.st26{fill:#2A246D;}
	.st27{fill:#04074A;}
	.st28{fill:url(#SVGID_3_);}
	.st29{opacity:0.99;}
	.st30{fill:url(#SVGID_4_);}
	.st31{fill:url(#SVGID_5_);}
	.st32{fill:url(#SVGID_6_);}
	
		.st33{opacity:0.25;fill:none;stroke:#FFFFFF;stroke-width:0.4465;stroke-linecap:round;stroke-linejoin:round;stroke-miterlimit:10;}
	.st34{fill:url(#SVGID_7_);}
	.st35{fill:url(#SVGID_8_);}
	.st36{fill:none;stroke:#F0F1FC;stroke-width:0.2232;stroke-miterlimit:10;}
	.st37{fill:none;stroke:#000000;stroke-width:0.2232;stroke-miterlimit:10;}
	.st38{fill:#4D3DFF;}
	.st39{fill:url(#SVGID_9_);}
	.st40{fill:none;}
	
		.st41{opacity:0.25;fill:none;stroke:#FFFFFF;stroke-width:0.4465;stroke-linecap:round;stroke-linejoin:round;stroke-miterlimit:10;stroke-dasharray:1.5627;}
	.st42{fill:#98EDAF;}
	.st43{fill:#BAF4C4;}
	
		.st44{opacity:0.45;fill:none;stroke:#000000;stroke-width:0.4465;stroke-linecap:round;stroke-linejoin:round;stroke-miterlimit:10;}
	.st45{fill:#AAF2BB;}
	.st46{opacity:0.25;}
	.st47{opacity:0.25;fill:#68B480;}
	.st48{fill:#D4F4C3;}
	.st49{opacity:0.25;fill:#D4F4C3;}
	.st50{fill:#8785C9;}
</style>
<path class="st3" d="M263,224.3c18.6-4.1,70.7-15.5,124,7.4c24.4,10.5,26.9,17.8,43.8,26.7c49.2,25.8,99.4-12.8,196.2-51.3
	c92.9-36.9,189.3-73.8,263.1-34.6c15.6,8.3,36.7,16.1,42.9,35.2c9.6,29.6-23.1,58.3-20.8,123.3c0.1,2,0.1,1.8,0.1,3.3
	c1.1,41-23.1,55.7-25.1,85.2c-0.5,8,1.4,4.6,10.7,39.6c7.7,29.2,15.2,57.4,16.3,89.3c0,0,1,28.4-5.7,62
	c-17,84.5-115.4,263.2-220.8,256.1c-29.8-2-32.9-17-97.5-31.7c-45.9-10.4-80-10.9-102.6-11.8c-109.4-4.3-236.6-9.4-323.9-82.8
	c-33.7-28.3-51.5-58.4-60.2-73.4c-59.3-102.3-64.4-254.2,18.4-354.4C135.6,295.7,183.9,241.6,263,224.3z"/>
<g>
	<g>
		<g>
			<path class="st0" d="M782.1,672c0.2-0.1,1.2,1.2,2.6,3.8c1.5,2.6,3.3,6.5,5,11.5c3.5,10.1,5.7,24.9,4.4,41.1
				c-1.3,16.2-5,30.4-7.9,40.6c-3,10.1-5.1,16.3-5.5,16.2c-0.4-0.1,1.1-6.5,3.5-16.7c2.4-10.2,5.7-24.4,7-40.2
				c1.3-15.9-0.5-30.3-3.4-40.3C784.9,677.9,781.6,672.2,782.1,672z"/>
		</g>
		<g>
			<path class="st0" d="M792.1,590.9c0.2-0.1,1.4,2.1,3.4,6.2c2,4.1,4.8,10,8.2,17.4c6.6,14.8,15.5,35.4,22,59.4
				c3.2,12,5.3,23.7,6.4,34.4c1.1,10.7,1.2,20.5,0.7,28.6c-0.5,8.1-1.6,14.7-2.6,19.1c-1,4.4-1.8,6.8-1.9,6.8
				c-0.5-0.1,1.9-9.9,2.4-26c0.6-16.1-1.5-38.4-7.9-62.1c-6.4-23.7-14.9-44.4-21-59.4c-3.1-7.5-5.6-13.5-7.3-17.7
				C792.8,593.4,791.9,591,792.1,590.9z"/>
		</g>
	</g>
	<g>
		<g>
			<path class="st0" d="M422.6,686.1c0.3,0.4-3,3.6-7.4,9.5c-1.1,1.5-2.3,3.1-3.4,5c-1.2,1.8-2.2,3.9-3.4,6
				c-2.2,4.3-4.2,9.3-5.8,14.7c-1.5,5.4-2.4,10.7-2.9,15.5c-0.1,2.4-0.4,4.7-0.3,6.9c-0.1,2.2,0.1,4.2,0.2,6
				c0.5,7.4,1.7,11.9,1.2,12c-0.3,0.1-2.2-4.2-3.3-11.8c-0.3-1.9-0.5-3.9-0.6-6.2c-0.2-2.2,0-4.6,0-7.1c0.3-5,1.2-10.5,2.8-16.1
				c1.6-5.6,3.9-10.7,6.2-15.1c1.3-2.2,2.4-4.3,3.8-6.1c1.2-1.9,2.5-3.5,3.8-4.9C418.5,688.5,422.4,685.8,422.6,686.1z"/>
		</g>
		<g>
			<path class="st0" d="M430.5,712.1c0.2,0.4-1.6,1.8-4.1,4.6c-1.2,1.4-2.5,3.1-3.8,5.1c-1.2,2.1-2.4,4.4-3.3,7
				c-0.9,2.6-1.4,5.2-1.7,7.6c-0.2,2.4-0.3,4.6-0.2,6.4c0.2,3.7,0.8,5.9,0.4,6.1c-0.3,0.1-1.7-2-2.5-5.8c-0.4-1.9-0.6-4.3-0.5-6.9
				c0.2-2.6,0.7-5.5,1.6-8.3c1-2.9,2.4-5.4,3.9-7.6c1.5-2.1,3.1-3.9,4.6-5.1C428,712.6,430.3,711.8,430.5,712.1z"/>
		</g>
	</g>
	<g>
		<g>
			<path class="st0" d="M321,470.1c0.2-0.1,1.5,1.2,3.8,3.7c1.2,1.2,2.5,2.8,4,4.7c1.5,1.9,3.2,4,4.9,6.5c0.9,1.2,1.7,2.6,2.7,3.9
				c0.9,1.4,1.8,2.9,2.7,4.4c1.9,3,3.6,6.4,5.5,10c3.5,7.2,6.8,15.4,9.5,24.2c2.6,8.9,4.2,17.5,5.2,25.5c0.4,4,0.8,7.8,0.8,11.3
				c0,1.8,0.2,3.5,0.1,5.1c0,1.6-0.1,3.2-0.1,4.7c0,3-0.3,5.7-0.5,8.1c-0.2,2.4-0.5,4.4-0.8,6.1c-0.6,3.3-1,5.1-1.2,5.1
				c-0.5-0.1,0.5-7.4,0.4-19.4c0-1.5-0.1-3-0.1-4.7c0-1.6-0.2-3.3-0.3-5.1c-0.1-3.5-0.7-7.2-1.1-11.1c-1.1-7.8-2.8-16.3-5.3-25
				c-2.6-8.7-5.8-16.7-9.1-23.9c-1.8-3.5-3.3-6.9-5.1-9.9c-0.9-1.5-1.6-3-2.5-4.4c-0.9-1.4-1.7-2.7-2.5-4
				C325.4,476.1,320.6,470.4,321,470.1z"/>
		</g>
		<g>
			<path class="st0" d="M354.5,484c0.3-0.2,3.7,3,8,9.1c2.2,3.1,4.5,6.9,6.7,11.3c2.2,4.5,4.2,9.5,5.9,15c1.6,5.5,2.6,10.9,3.2,15.8
				c0.5,4.9,0.7,9.4,0.5,13.2c-0.3,7.5-1.4,12-1.8,12c-0.5-0.1-0.1-4.6-0.3-12c-0.1-3.7-0.5-8-1.1-12.8c-0.7-4.8-1.8-10-3.4-15.3
				c-1.6-5.3-3.5-10.3-5.5-14.7c-2-4.4-4.1-8.2-6-11.4C357,487.9,354.2,484.3,354.5,484z"/>
		</g>
	</g>
</g>
<g>
	<g>
		<g>
			<polygon id="XMLID_24_" class="st4" points="239.3,697.4 236.7,692.1 164.9,747 196.3,797.7 267.7,737.5 			"/>
			<polygon id="XMLID_23_" class="st5" points="167.9,748.1 195.5,795.7 197.2,794.9 172.7,750.5 			"/>
			<path id="XMLID_22_" class="st6" d="M237.9,696.3l-70,51.8c0,0,0.3,1.1,2,1.8c1.7,0.7,2.7,0.5,2.7,0.5l73.5-50.3
				c0,0-4.2-1-5.8-2.1C238.9,696.8,237.9,696.3,237.9,696.3z"/>
			<path id="XMLID_21_" class="st4" d="M248.1,698.1l-76.7,51.2l24.9,47.2l4,6.5l76.7-56.7c0,0-8.1-12.1-12.9-19.3
				c-4.8-7.3-14.4-24.4-14.9-25.5C248.6,700.3,248.1,698.1,248.1,698.1z"/>
		</g>
		<g>
			<polygon id="XMLID_20_" class="st7" points="880.2,344.6 882.4,340.2 942.7,386.2 916.4,428.9 856.4,378.2 			"/>
			<polygon id="XMLID_19_" class="st5" points="940.2,387.2 917.1,427.2 915.6,426.5 936.2,389.2 			"/>
			<path id="XMLID_18_" class="st6" d="M881.4,343.7l58.7,43.5c0,0-0.2,0.9-1.7,1.5c-1.5,0.6-2.3,0.4-2.3,0.4l-61.8-42.3
				c0,0,3.6-0.8,4.9-1.8S881.4,343.7,881.4,343.7z"/>
			<path id="XMLID_17_" class="st7" d="M872.9,345.2l64.4,43l-20.9,39.6l-3.4,5.5l-64.4-47.6c0,0,6.8-10.1,10.9-16.2
				c4.1-6.1,12.1-20.5,12.5-21.4C872.4,347.1,872.9,345.2,872.9,345.2z"/>
		</g>
	</g>
	<g>
		<g>
			<path class="st8" d="M153.6,261.7c0,0-4.6,3.2-2.3,8.4c2.3,5.3,12.3,20.8,25.7,20.3c0.6,0-17-28.7-17-28.7H153.6z"/>
			<g>
				<g>
					<path class="st7" d="M133,549c0,0-16.9-15.1-22.3-12.4c-6.6,3.3-44.3,40.3-42.9,57.7c0.6,7.1,8.9,1,23.7-14.3
						c14.8-15.4,33.4-8.8,33.4-8.8L133,549z"/>
				</g>
				<g>
					<path class="st7" d="M173.9,574.4l-20.4-12.2c0,0-52.8,49.5-44.5,56.1c6.3,5,9.9,0.5,24.7-14.8c14.8-15.4,33.6-6.5,33.6-6.5
						L173.9,574.4z"/>
				</g>
				<polygon class="st9" points="298.3,411.6 302.1,465.8 217.3,443.8 				"/>
				<path class="st10" d="M217.3,445.6c0,0,74.1,4.7,84,1.4c0,0,14.5,142.3-11.3,157.6c-25.8,15.4-83.6-7.1-83.6-7.1l15.6-30.7
					l33.7-2.2v-54.8l-2.4,0.5L217.3,445.6z"/>
				<path class="st11" d="M124.4,542.7c0,0-18.6,7.7-12.6,26.3c0,0,63.6,49.9,94.6,38.4c17.3-6.5,36-55.7,49-97.7l45.9-62.7
					c0,0-21.6,1.1-28.9,1.1c-13.8-0.1-55.1-2.4-55.1-2.4s-21.6,113-29.3,115.7C180.4,564.1,124.4,542.7,124.4,542.7z"/>
				<path class="st12" d="M234.6,303.9c0,0,44.4-41.7,52.1-52.6c7.7-11,24.1-47.7,44.4-63.1l-9.9-20.8c0,0,6-3.3,9.9,5.5
					c0,0,14.3-28.5,17.5-28c3.3,0.5-6.6,21.9-6.6,21.9s13.7-19.7,17.5-19.2c3.8,0.5-9.9,22.2-9.9,22.2s15.4-17.8,17.5-15.6
					c2.2,2.2-12.1,15.6-12.1,15.6s15.4-8.8,17-5.9c1.6,2.9-15.4,10.6-15.4,10.6s-1.6,12.6-12.1,18.1c0,0-20.6,55.7-39.3,73.8
					l-59.9,62.2L234.6,303.9z"/>
				<path class="st12" d="M181.6,325.5c0,0-42.1,44-53.1,51.6c-11,7.6-47.9,23.7-63.5,43.8l-20.7-10.1c0,0-3.3,6,5.4,9.9
					c0,0-28.6,14-28.1,17.3c0.5,3.3,22-6.4,22-6.4s-19.9,13.5-19.4,17.4c0.5,3.8,22.3-9.7,22.3-9.7s-17.9,15.2-15.8,17.4
					c2.2,2.2,15.7-11.9,15.7-11.9s-9,15.3-6.1,16.9c2.9,1.7,10.7-15.3,10.7-15.3s12.6-1.5,18.2-11.9c0,0,52.8-21,71.1-39.5
					l65.7-46.5L181.6,325.5z"/>
				<path class="st0" d="M197.4,308l-21.3,20.8l5.4,23.5c0,0,21,50.3,24.1,62.6c4.9,19.1-3,48.2-3,48.2s35.6-3,67.9-4
					c32.3-1.1,42.9-11.5,42.9-11.5s-28-93.4-47.4-119.5c-19.4-26.1-26.4-34.3-26.4-34.3l-28.5,6.2L197.4,308z"/>
				<path class="st0" d="M259.8,325l22.2-14.2c0,0,3.4-15.2-23.4-33.1l-31.4,19.7L259.8,325z"/>
				<path class="st0" d="M180.6,327.2c-12.2,1.7-34.4,32.5-36.9,32.5c0,0,15.6,25.5,28,26.3C171.7,386,226.2,320.8,180.6,327.2z"/>
				<path class="st12" d="M223.5,307.1c0,0-17.7-13.2-17.1-18.5c0.2-1.3,2.6-3.5,3.2-5.4c3.4-10.3-13.1-36.8-23.2-42.4
					c-8-4.4-4.5-4.8-21.3,5.2c-16.8,10-7.2,27.3,0.3,36.2c7.1,8.4,15.2,12.1,22.5,12.7l10.4,23.1L223.5,307.1z"/>
				<path class="st12" d="M191.6,325.5c-3.3-8.2,3-18.5,14.1-23.1c11.2-4.6,22.9-1.6,26.3,6.6c3.3,8.2-7.9,20.5-14.1,23.1
					C211.6,334.6,194.9,333.7,191.6,325.5z"/>
			</g>
			<path class="st12" d="M165.4,282.3c0,0-5.7-0.3-6.4,3.5c-0.6,3.8,10.5,3.8,14.6,1L165.4,282.3z"/>
			<path class="st13" d="M168.3,285.8c-1.1-6.9-8.4-12-8.1-18.8c3.5,0,5.8-4.3,4.2-8.1c-0.6-1.5-1.7-2.7-2.4-4.2
				c-0.7-1.4-0.9-3.3,0.2-4.2c0.5-0.4,1.2-0.5,1.8-0.5c5.2-0.5,14.2,1,19-0.8c4.6-1.7,9.5-5,9-10.6c-0.4-4.9-4.7-8.8-8.7-11.8
				c-2.3-1.7-8.8-6.2-11.2-5.8c-3.7,0.6-4.6,5.6-4.9,9.8c-2.6-2.5-6.5-2.1-8.7-0.1c-2.3,2-3.3,5.2-4.3,8.3c-1,3.1-2,6.3-4.3,8.4
				c-2.1,1.9-5.4,3.4-5,6.7c0.5,3.9,5.6,5.3,8,8.6c-0.6-0.8-1.1,4.4-0.7,5.3c1,2.7,3.5,4.4,5.3,6.5
				C161.3,278.9,163.2,283.3,168.3,285.8z"/>
			<path class="st0" d="M200.3,270l-13.1,6.8C187.2,276.8,202.9,288.2,200.3,270z"/>
			<path class="st14" d="M182.3,272.7c0.7,1.4-0.3,3.3-2.4,4.4c-2,1.1-4.2,0.8-4.9-0.5c-0.7-1.4,0.3-3.3,2.4-4.4
				C179.4,271.1,181.6,271.4,182.3,272.7z"/>
			<path class="st14" d="M201.4,259.7c0.7,1.4-0.3,3.3-2.4,4.4c-2,1.1-4.2,0.8-4.9-0.5c-0.7-1.4,0.3-3.3,2.4-4.4
				C198.5,258.1,200.7,258.3,201.4,259.7z"/>
			<g>
				<path class="st8" d="M191.2,269.6c-0.1-0.1,0.2-0.4,0.7-0.8c0.5-0.4,1.5-0.9,2.2-1.6c0.7-0.7,0.9-2.2-0.1-2.5
					c-1.1-0.4-2.3,0.9-3.8,2.1c-0.4,0.3-0.7,0.6-1,0.9c-0.3,0.3-1,0.7-1.7,0.6c-1.3-0.2-1.9-1.1-2.4-1.7c-1-1.3-1.7-2.7-2-3.9
					c-0.7-2.4-0.4-4-0.2-4c0.2,0,0.3,1.5,1.2,3.6c0.4,1.1,1.1,2.3,2.1,3.4c0.5,0.6,1.1,1.1,1.5,1.1c0.2,0,0.3-0.1,0.7-0.3
					c0.3-0.3,0.7-0.6,1-0.9c0.7-0.6,1.3-1.2,2.2-1.7c0.8-0.5,1.9-0.9,3-0.5c1.1,0.3,1.7,1.6,1.5,2.4c-0.1,0.9-0.6,1.6-1.1,2.1
					c-1.1,0.9-2,1.1-2.6,1.4C191.6,269.5,191.2,269.7,191.2,269.6z"/>
			</g>
			<path class="st15" d="M187.9,295c0,0,8.3,0,12.9-2.7c0,0-3.8,4.7-11.5,5.9L187.9,295z"/>
			<g>
				<path class="st11" d="M191.6,257.6c-0.1,0.4-1.2,0.5-2.5,1.1c-1.2,0.5-2.1,1.3-2.5,1c-0.4-0.2,0.2-1.7,1.9-2.4
					C190.2,256.6,191.7,257.3,191.6,257.6z"/>
			</g>
			<g>
				<path class="st11" d="M175.2,268.3c-0.3-0.2,0.2-1.6,1.4-2.9c1.2-1.4,2.8-1.8,2.9-1.4c0.2,0.4-0.8,1.2-1.8,2.4
					C176.6,267.6,175.6,268.6,175.2,268.3z"/>
			</g>
			<g>
				<path class="st8" d="M168.9,266.3c-0.7-0.5-1.2-2.6,1.4-5.5c2.6-3,5.5-2.4,5.9-1.6c0.4,0.8-0.6,1.9-2.9,4.5
					C170.9,266.3,169.6,266.8,168.9,266.3z"/>
			</g>
			<g>
				<path class="st8" d="M182.6,254.9c-0.4-0.7,0-2.7,3.4-4.1c3.4-1.5,5.7,0.1,5.6,1c0,0.8-1.3,1.4-4.3,2.7
					C184.4,255.7,183,255.7,182.6,254.9z"/>
			</g>
		</g>
		<g>
			<g>
				<path class="st7" d="M899.3,275.1c0.2,0.2-3.4,4.3-10.9,8.7c-7.4,4.4-19.1,8.8-32.5,8.9c-13.4,0.1-25.2-4.1-32.6-8.4
					c-7.6-4.3-11.3-8.3-11-8.6c0.3-0.4,4.4,3,12,6.7c7.5,3.7,18.8,7.4,31.6,7.3c12.8-0.1,24.1-4,31.5-7.8
					C894.9,278.2,898.9,274.7,899.3,275.1z"/>
			</g>
			<g>
				<path class="st7" d="M817.4,269c-0.2,0.5-4.2-1.2-11-2.7c-3.4-0.8-7.4-1.4-12-2c-4.6-0.5-9.6-0.9-14.9-1.3
					c-5.3-0.4-10.4-0.8-15.1-1.4c-4.6-0.6-8.8-1.3-12.2-2.3c-6.9-1.8-10.8-3.9-10.6-4.2c0.2-0.5,4.3,0.9,11.1,2.2
					c3.4,0.6,7.5,1.1,12.1,1.6c4.6,0.4,9.6,0.8,15,1.1c5.3,0.4,10.4,0.9,15.1,1.5c4.6,0.7,8.8,1.6,12.2,2.7
					C813.8,266.3,817.5,268.7,817.4,269z"/>
			</g>
			<path class="st13" d="M736.2,181.4c12.8-2.7,26.1-0.4,39,1.8c12.9,2.2,26.3,4.1,38.9,0.6c22.8-6.3,40.1-29.3,63.7-29.1
				c9.7,0.1,18.9,4.2,28.4,6.4c11.8,2.7,24,2.4,35.9,4.4c11.9,1.9,24.2,6.7,31,16.8c8,11.9,5.8,28.7-2.6,40.3
				c-8.4,11.6-21.8,18.7-35.6,22.7c-9.6,2.8-19.8,4.4-28.1,10c-8.4,5.6-13.9,14.7-21.7,21.1c-19.6,16.1-50.2,11.5-70.5-3.8
				c-5.1-3.8-9.8-8.3-15.6-11.1c-23.3-11.4-56.8,3.7-76.9-17.1C701.7,223.4,704.6,188.1,736.2,181.4z"/>
			<g>
				<g>
					<path class="st14" d="M729.8,589.5c0,0,21.3,45.8,23.8,37.3c2.5-8.5,1.7-28.8,0.3-31.7c-1.3-2.9-10.1-15.7-10.1-15.7
						L729.8,589.5z"/>
					<path class="st12" d="M884.1,219.5c2,2.5,0.7-0.2,2.9,3.5c9.3-0.3,15.5-8.2,15.5-8.2s14.8,0.4,14.6-2.2
						c-0.2-2.6-14.1-1.7-14.1-1.7s14.8-4.6,14-7c-0.8-2.3-17.9,5.1-17.9,5.1s17.2-10.7,14.7-12.4c-2.5-1.7-19.1,7.6-19.1,7.6
						s14.4-11.8,12.2-13.4c-2.2-1.5-22.1,13.9-22.1,13.9c0.3-7.6-5.1-7.3-5.1-7.3l0.2,18.5C879.9,215.9,883.2,218.4,884.1,219.5z"/>
					<path class="st12" d="M665.4,135.8c-3.2,0.6-0.7-0.5-4.8,0.7c-6.7-6.4-5.8-16.5-5.8-16.5s-11.3-9.5-9.4-11.4
						c1.9-1.9,11.7,8.2,11.7,8.2s-8-13.3-5.8-14.5c2.1-1.2,10,15.7,10,15.7s-5.8-19.4-2.7-19c3,0.4,9.2,18.4,9.2,18.4
						s-2.9-18.4-0.3-18.1c2.6,0.3,7.3,25.1,7.3,25.1c4.8-5.9,8.7-2.1,8.7-2.1l-12.2,13.4C671.3,135.7,666.9,135.6,665.4,135.8z"/>
					<path class="st12" d="M742,213.1c-4.1-0.7-14,5.9-18.9,16.6c-2.8,6-4.7,12.1-1.5,21.8c1.5,4.6,4.6,5.2,5.3,7.2
						c0.9,2.6-2,10.8-2,10.8s11.7,4.7,11.7,4.7c0.8-5.6,1.6-11.3,7.3-13.7c2.1-0.9,4.4-1.5,6.5-2.7c5.5-3.1,8.4-10,10.6-15.6
						C762.7,238,752.3,214.8,742,213.1z"/>
					<path class="st14" d="M728.1,372l-19.5-7.8c0,0-57.9,107.4-57.7,137.2c0.2,29.8,79.6,89.5,79.6,89.5l13.4-11.6
						c0,0-24.5-42.7-37.6-57.8C693.2,506.5,728.1,372,728.1,372z"/>
					<path class="st12" d="M825.1,494.4c0,0,43-20.4,34.4-22.2c-8.6-1.8-28.9,0.7-31.6,2.2c-2.8,1.6-14.9,11.3-14.9,11.3
						L825.1,494.4z"/>
					<path class="st12" d="M747.3,371.1l-29.6,10.8c0,0-29.6,130.3-18.3,150.7c11.3,20.5,43.1,6.9,88.3-17.8
						c37.9-20.7,37.9-20.7,37.9-20.7l-12.6-8.4c0,0-44.1,8.6-56.5,17.3c0,0,6.5-18.3,15.1-44.1C780.2,433,786.1,406.6,747.3,371.1z"
						/>
					<path class="st12" d="M710.9,282.3c0-8.7,2.8-14.9,11.4-14.9c8.7,0,20.6,3,20.6,11.7c0,8.7-6.8,22.7-15.5,22.7
						C718.8,301.8,710.9,291,710.9,282.3z"/>
					<path class="st12" d="M717.7,266.1c0,0-26.9-29.1-32.3-57.7c-5.4-28.5-14.5-74.8-14.5-74.8l-10.2,2.9c0,0-4.8,63.3,0,73
						c4.8,9.7,28.5,74.2,35.7,91.2L717.7,266.1z"/>
					<path class="st12" d="M746.6,288.8c0,0,2.1-9.1,36.1-21.4c34-12.3,98.3-52.2,98.3-52.2l6.4,7.3c0,0-34.9,40.3-55.2,47.4
						c-20.3,7.1-63.4,34.9-67.9,37.2C757.6,310.5,757.7,314.7,746.6,288.8z"/>
					<path class="st11" d="M717.7,266.1c0,0-27.3,8.9-27.3,50.5c0,0,0,57,6.5,67.4c0,0,10.5,2.7,23.5,0c13.7-2.8,27-12.9,27-12.9
						l21.5-64.6l-2.6-30.3l-29.3-5.6c0,0,8.4,39.2-22,22.4c-5.9-3.3,8.7-25.5,8.7-25.5L717.7,266.1z"/>
					<path class="st11" d="M694.6,300l-13.5-28.1c0,0,1.9-17,26.7-23.1c0,0,2.5,8.6,5.2,11.9c2.7,3.3,10.7,6.8,10.7,6.8L694.6,300z"
						/>
					<path class="st11" d="M745.5,311.3l42.9-8.8c0,0,7.5-15.4-10.2-33.8c0,0-33.4,2-37.8,2.4c-4.3,0.4-1.3,3.6-1.3,3.6L745.5,311.3
						z"/>
				</g>
				<path class="st11" d="M696.8,370.1c0,0-40.5,74.9-47.2,88.3c0,0,119.6,54.9,168.1-11.2c0,0-27.6-58.4-70.3-80.7l0,0l-18.4-5.5
					l-31.5,8.7"/>
			</g>
			<path class="st12" d="M759.4,241.5c0,0,4.6-4.6,7.5-1.4c2.8,3.2-10.3,7.8-10.3,7.8L759.4,241.5z"/>
			<g>
				<path class="st7" d="M843.9,178.5c0,0.2-1.7,0.9-5.1,1.7c-3.4,0.8-8.4,1.6-14.7,1.7c-6.3,0.1-13.7-0.4-21.8-1.5
					c-8.1-1.1-17-2.7-26.3-3.7c-9.3-1-18.2-1.2-26.2,0.1c-7.9,1.3-14.8,3.9-20,6.9c-5.2,3.1-8.9,6.4-11.1,9
					c-2.3,2.6-3.3,4.2-3.5,4.1c-0.1-0.1,0.6-1.9,2.6-4.8c2-2.9,5.6-6.7,10.9-10.1c5.3-3.4,12.4-6.3,20.7-7.8
					c8.2-1.5,17.5-1.4,26.9-0.4c9.5,1,18.3,2.7,26.4,3.9c8.1,1.2,15.3,2,21.5,2.1C836.3,180.2,843.8,178,843.9,178.5z"/>
			</g>
			<g>
				<path class="st8" d="M735.9,238.9c0,0.2-1.3,0.3-3.3-0.4c-0.5-0.2-1.1-0.4-1.6-0.9c-0.3-0.2-0.5-0.6-0.7-1
					c-0.2-0.6-0.2-1.2,0-1.7c0.1-0.1,0.1-0.3,0.2-0.3l0.4,0c0.3,0,0.5,0,0.8,0.1c0.5,0.1,0.7,0.1,1.1,0.1c0.7,0,1.3-0.1,2-0.2
					c2.8-0.6,4.7-2.6,5.5-4.3c0.9-1.7,1-3,1.2-2.9c0.2,0,0.5,1.3-0.2,3.4c-0.4,1-1,2.1-2.1,3.1c-1,1-2.5,1.8-4.1,2.2
					c-0.8,0.2-1.6,0.2-2.4,0.2c-0.3,0-0.9-0.1-1-0.1c-0.1,0-0.1-0.1-0.2,0c0,0,0,0,0,0.1c0.1,0.2,0.2,0.4,0.3,0.5
					c0.3,0.3,0.7,0.6,1.2,0.8C734.7,238.4,735.9,238.7,735.9,238.9z"/>
			</g>
			<path class="st0" d="M726.3,239.4l15.8,6.2C742.1,245.6,728.2,255.2,726.3,239.4z"/>
			<path class="st14" d="M748.8,242.4c-0.6,1.1-2.3,1.3-3.9,0.4c-1.6-0.8-2.4-2.4-1.9-3.4c0.6-1.1,2.3-1.3,3.9-0.4
				S749.4,241.3,748.8,242.4z"/>
			<path class="st14" d="M731.2,233c-0.5,1.1-2.2,1.4-3.8,0.7c-1.6-0.7-2.6-2.2-2.1-3.3c0.5-1.1,2.2-1.4,3.8-0.7
				C730.7,230.5,731.7,231.9,731.2,233z"/>
			<path class="st15" d="M725.4,256.7c0,0,5.5,4.6,11.3,3.1c0,0-2,3-9.7,1.9C727,261.7,727.6,258.4,725.4,256.7z"/>
			<path class="st11" d="M747.3,232.5c0,0.7-0.6,1.3-1.2,1.3c-0.7,0-1.3-0.6-1.3-1.3c0-0.7,0.6-1.2,1.3-1.2
				C746.7,231.2,747.3,231.8,747.3,232.5z"/>
			<circle class="st11" cx="735.8" cy="228.8" r="1.2"/>
			<g>
				<path class="st7" d="M751.3,229.1c-0.4,0.2-1.1-0.7-2.3-1.5c-1.1-0.8-2.2-1.1-2.2-1.5c0-0.4,1.5-0.7,3,0.3
					C751.4,227.4,751.7,229,751.3,229.1z"/>
			</g>
			<g>
				<path class="st7" d="M733.3,223.1c0-0.4,1.3-0.9,3.1-0.8c1.8,0,3.2,0.9,3,1.3c-0.2,0.4-1.4,0.2-3.1,0.2
					C734.7,223.7,733.3,223.5,733.3,223.1z"/>
			</g>
			<path class="st11" d="M738.9,608.1c0,0,6.6,23.3,13.3,21.4c6.8-1.9,1.7-34.4,1.7-34.4l-6.8-10.7
				C747.2,584.4,753.5,638.8,738.9,608.1z"/>
			<path class="st11" d="M821.7,478.9c0,0,4.8-5.2,10.6-6.1c5.8-0.9,26.5-3.3,29.5-0.6c3,2.7-16.8,12-16.8,12s6.9-4.4,4-6
				C844,475.3,821.7,478.9,821.7,478.9z"/>
			<polygon class="st11" points="813.5,485.1 820,498.3 823.5,496.3 814.9,483.3 			"/>
			<polygon class="st11" points="741.1,574 725.2,588.4 729.9,592.3 743.2,577.8 			"/>
		</g>
		<g>
			<path class="st11" d="M408.6,431.4c-4.5-11.2-6.3-23.7-13-33.8c-9.7-14.5-28.4-21.6-36.2-37.1c-3.3-6.6-4.4-14.1-4.4-21.5
				c-0.1-14.6,4.3-30.2,15.6-39.5c13-10.7,32.5-10.5,47.7-3.4c15.2,7.2,26.8,20.2,36.7,33.8c9.9,13.6,18.5,28.2,30,40.5
				c8.5,9.1,18.6,16.9,25.1,27.6c17.6,29.3-0.5,66.3-31.6,76.9C451.1,484.2,418.1,454.8,408.6,431.4z"/>
			<g>
				<g>
					<path class="st12" d="M369.7,637.9c2.7,2.2-0.2,0.7,3.7,3.2c-0.9,9.8-10,16-10,16s-0.4,15.6-3.3,15.3
						c-2.9-0.3-1.1-15.1-1.1-15.1s-6,15.4-8.5,14.4c-2.5-1,6.6-18.7,6.6-18.7s-12.8,17.7-14.6,14.9c-1.8-2.8,9.5-19.8,9.5-19.8
						s-13.9,14.6-15.5,12.3c-1.6-2.4,16.6-22.7,16.6-22.7c-8.4-0.1-7.8-5.8-7.8-5.8l20.5,1.2C365.9,633.2,368.4,636.9,369.7,637.9z"
						/>
					<path class="st12" d="M565.9,342.8c3.5,0.6,0.8-0.5,5.3,0.8c7.5-6.8,6.5-17.5,6.5-17.5s12.6-10.1,10.5-12c-2.1-2-13,8.6-13,8.6
						s8.9-14.1,6.5-15.4c-2.4-1.3-11.1,16.6-11.1,16.6s6.4-20.6,3.1-20.2c-3.4,0.4-10.3,19.5-10.3,19.5s3.2-19.5,0.3-19.2
						c-2.9,0.3-7.6,25.9-7.6,25.9c-6.9-5.6-11.7-2-11.7-2l15.1,14.8C559.5,342.7,564.3,342.5,565.9,342.8z"/>
					<path class="st12" d="M479.9,428.3c6.4-1,25.7,11.6,20.8,37.1c-0.4,2.1-3.2,6.9-3.9,8.8c-0.9,2.5,6,11.5,6,11.5l-17.7,5.7
						c-0.8-5.3,0.5-13.2-5.2-15.5c-2.1-0.9-4.4-1.4-6.4-2.5c-5.5-3-8.4-9.5-10.6-14.8c-1.7-4-2.9-8.3-2.9-12.6
						C460.1,435,469.7,429.9,479.9,428.3z"/>
					<path class="st12" d="M515.4,498.1c0-9.2-2.9-12.7-12.5-12.7c-9.6,0-22.4,3.5-22.4,12.7c0,9.2,6.8,20.7,16.4,20.7
						C506.6,518.8,515.4,507.3,515.4,498.1z"/>
					<path class="st12" d="M507.8,481c0,0,30-30.9,36-61.2c6-30.3,16.2-79.4,16.2-79.4l11.4,3.1c0,0,5.4,67.1,0,77.4
						c-5.4,10.3-36,81.6-35.4,99.9L507.8,481z"/>
					<path class="st12" d="M454.4,495.9c0,0-10.2,1.7-25.8,37.1c-15.6,35.4-63.5,101.3-63.5,101.3l7.8,7.2c0,0,46.7-34.8,55.7-55.9
						c9-21.1,20.4-47.4,25.8-46.2C459.8,540.5,482.5,509.1,454.4,495.9z"/>
					<path class="st4" d="M534.6,525.6l13.9-38.5c0,0-2.2-18.1-29.7-24.5L503.2,485L534.6,525.6z"/>
					<path class="st4" d="M459,493c0,0-16.5,1.4-29.8,30.7c0,0,14.7,20.3,25.4,20.9C454.6,544.6,494.5,510.5,459,493z"/>
				</g>
				<g>
					<path class="st12" d="M504.2,840.5c0,0-23.8,48.5-26.5,39.5c-2.8-9-1.9-30.6-0.4-33.6c1.5-3.1,11.2-16.7,11.2-16.7L504.2,840.5
						z"/>
					<path class="st16" d="M506.1,609.8l21.7-8.3c0,0,64.5,113.9,64.2,145.5c-0.3,31.6-88.6,94.9-88.6,94.9l-14.9-12.3
						c0,0,41.8-61.5,56.4-77.5c7.3-8-44.9-47.1-52.8-84.8C484.3,629.7,506.1,609.8,506.1,609.8z"/>
				</g>
				<g>
					<g>
						<path class="st12" d="M375.4,815c0,0-44.4,32.8-42.6,23.6c1.9-9.2,13-28,15.8-30.1c2.8-2.1,18-9.9,18-9.9L375.4,815z"/>
						<path class="st7" d="M446.9,650.2l64.3-37.3c0,0,2.6,129.4-12.9,157.4C482.9,798.3,374,816,374,816l-7.3-17.4
							c0,0,67.2-40,87.8-47.9C475.1,742.9,446.9,650.2,446.9,650.2z"/>
					</g>
					<path class="st7" d="M485.2,587.4c0,0-47.3,16.8-38.3,62.7c9,46,24.1,54.6,24.1,54.6l27.1-44.5l27.3-58.3l-27.3-3.5
						L485.2,587.4z"/>
				</g>
				<path class="st17" d="M507.8,481c0,0,34.8,19.5,34.8,63.7c0,0-4.4,50.3-11.6,61.3c0,0-11.7,2.8-26.2,0c-15.2-3-30-13.7-30-13.7
					l-11.9-61.6l-9.3-36l5-1.7l26.2-2.9c0,0-3.8,39.1,25.5,19.7c6.2-4.1-7.7-24.5-7.7-24.5L507.8,481z"/>
			</g>
			<polygon class="st0" points="529.1,314.2 602.2,356.8 643.3,279.2 574.8,241.2 			"/>
			<polygon class="st0" points="630.7,685.8 683,653.5 639.8,578.1 592.1,609.1 			"/>
			<g>
				<path class="st11" d="M373.5,364.7c0.1-0.1,1.7,1.3,4.3,4.3c2.5,3,6,7.5,9.5,13.7c3.5,6.1,6.9,13.9,9.4,22.9
					c2.6,8.9,4.3,19,8.2,28.7c2,4.8,4.5,9.2,7.4,13.2c3,3.9,6.3,7.3,9.6,10.3c6.9,5.8,14.2,9.8,20.6,12.1c6.5,2.3,12,3.4,15.8,3.8
					c3.8,0.4,6,0.5,6,0.7c0,0.2-2.2,0.5-6.1,0.4c-3.9,0-9.7-0.8-16.4-2.9c-6.8-2.1-14.4-6.1-21.7-12c-3.6-3.1-7.1-6.6-10.2-10.7
					c-3.1-4.1-5.7-8.8-7.9-13.8c-4.1-10.1-5.7-20.2-8.1-29.1c-2.3-8.8-5.4-16.5-8.6-22.6c-3.2-6.1-6.3-10.8-8.6-14
					C374.6,366.6,373.3,364.9,373.5,364.7z"/>
			</g>
			<g>
				<path class="st11" d="M463.2,314.9c0.5-0.1,1.1,7.1,5.1,17.7c2,5.3,5,11.4,9.3,17.5c2.1,3.1,4.6,6.1,7.4,9.1
					c2.8,3,5.8,6.1,8.7,9.5c5.7,6.9,9.7,14.4,13.4,21.1c3.7,6.7,6.6,13,8.1,18.7c1.6,5.7,1.6,10.5,1.2,13.8
					c-0.5,3.3-1.3,4.9-1.5,4.9c-0.3-0.1,0.2-1.8,0.3-5c0.1-3.1-0.3-7.7-2-13.1c-1.7-5.4-4.7-11.4-8.5-18
					c-3.8-6.5-7.8-13.9-13.3-20.5c-2.7-3.3-5.7-6.4-8.5-9.5c-2.8-3.1-5.4-6.3-7.5-9.5c-4.3-6.4-7.2-12.8-9-18.4
					c-1.8-5.5-2.6-10.2-3-13.4C463,316.7,463.1,314.9,463.2,314.9z"/>
			</g>
			<g>
				<path class="st8" d="M485.6,456c0-0.2,1.2-0.4,2.3-1.7c0.3-0.3,0.5-0.7,0.5-1c0-0.3-0.2-0.8-0.5-1c-0.3-0.3-0.7-0.5-1.2-0.4
					c-0.5,0-1.2,0.3-2,0.4c-1.8,0.2-3.3-0.8-4.2-1.6c-1-0.9-1.7-1.8-2.3-2.6c-1.1-1.6-1.4-2.8-1.3-2.9c0.2-0.1,0.9,0.9,2.1,2.2
					c0.6,0.7,1.4,1.4,2.3,2.2c0.9,0.7,2,1.4,3.1,1.2c0.6-0.1,1.3-0.3,2.1-0.4c0.8-0.1,1.8,0.3,2.3,0.9c0.6,0.6,0.9,1.3,0.8,2.1
					c-0.2,0.9-0.6,1.2-1,1.6C487.1,456.4,485.6,456.2,485.6,456z"/>
			</g>
			<path class="st0" d="M494.3,457.2l-14,5.1C480.2,462.3,492.1,472.7,494.3,457.2z"/>
			<path class="st14" d="M478.8,456.3c0.6,1.1-0.3,2.6-1.9,3.4c-1.6,0.8-3.3,0.6-3.9-0.4c-0.6-1.1,0.3-2.6,1.9-3.4
				C476.5,455.1,478.3,455.3,478.8,456.3z"/>
			<path class="st14" d="M495.5,447.8c0.5,1.1-0.5,2.6-2.2,3.3c-1.7,0.7-3.4,0.3-3.8-0.8c-0.5-1.1,0.5-2.6,2.2-3.3
				C493.3,446.3,495,446.7,495.5,447.8z"/>
			<path class="st15" d="M480.6,476.2c0,0,4.7,1,10.7-0.5c0,0-3,2.9-7.8,3.5C483.6,479.2,482.5,477.2,480.6,476.2z"/>
			<path class="st11" d="M485.4,444.7c0.5,0.4,0.6,1.2,0.1,1.8c-0.4,0.5-1.2,0.6-1.8,0.1c-0.5-0.4-0.6-1.2-0.1-1.8
				C484.1,444.3,484.9,444.2,485.4,444.7z"/>
			<path class="st11" d="M476,450.1c0.5,0.4,0.6,1.2,0.1,1.8c-0.4,0.5-1.2,0.6-1.8,0.1c-0.5-0.4-0.6-1.2-0.1-1.8
				C474.7,449.7,475.5,449.6,476,450.1z"/>
			<g>
				<path class="st11" d="M485.5,439.4c-0.1,0.4-1.3,0.4-2.6,0.8c-1.3,0.4-2.3,1-2.6,0.7c-0.3-0.2,0.4-1.6,2.2-2.1
					C484.3,438.3,485.7,439.1,485.5,439.4z"/>
			</g>
			<g>
				<path class="st11" d="M469.2,449.3c-0.3-0.2,0.2-1.6,1.4-2.9c1.2-1.4,2.8-1.8,2.9-1.4c0.2,0.4-0.8,1.2-1.8,2.4
					C470.6,448.6,469.5,449.5,469.2,449.3z"/>
			</g>
			<path class="st12" d="M463.9,459.7c0,0-4.5-3.8-6.7-0.4c-2.2,3.4,9.7,5.2,9.7,5.2L463.9,459.7z"/>
			<path class="st7" d="M355.7,804.4c0,0-6.5,2.8-8.1,4.5c-1.7,1.7-17.1,28.3-15.1,31.7c2,3.4,17.4-8.1,17.4-8.1
				S336.9,835,355.7,804.4"/>
			<path class="st7" d="M481.6,839.6c0,0-4.6,5-5.3,7.2c-0.7,2.3-2,33,1.3,35.1c3.3,2.1,12.3-14.9,12.3-14.9
				S479.2,875.5,481.6,839.6"/>
		</g>
	</g>
</g>
<path class="st1" d="M66.1,144c0.1-17.7,18-48.3,35.6-50.7c14.4-1.9,19.2,4.8,21.9,11.2c6.6-8.3,16.8-13.6,28.2-13.6
	c12.3,0,19.7,6.4,26.2,15.9c4.5-3.5,21.9-12.5,34.3,2.9c8,9.9,4.8,17,4.8,17s0.6-7.1,12.2-7.1c25.9,0,23.4,25.6,23.4,25.6l-42.5-1.2
	H66.1z"/>
<path class="st2" d="M382.1,144c0.1-17.7,18-48.3,35.6-50.7c14.4-1.9,19.2,4.8,21.9,11.2c6.6-8.3,16.8-13.6,28.2-13.6
	c12.3,0,19.7,6.4,26.2,15.9c4.5-3.5,21.9-12.5,34.3,2.9c8,9.9,4.8,17,4.8,17s0.6-7.1,12.2-7.1c25.9,0,23.4,25.6,23.4,25.6l-42.5-1.2
	H382.1z"/>
</svg>
