<?xml version="1.0" encoding="utf-8"?>
<!-- Generator: Adobe Illustrator 23.0.0, SVG Export Plug-In . SVG Version: 6.00 Build 0)  -->
<svg version="1.1" id="Layer_1" xmlns="http://www.w3.org/2000/svg" xmlns:xlink="http://www.w3.org/1999/xlink" x="0px" y="0px"
	 viewBox="0 0 1000 1000" style="enable-background:new 0 0 1000 1000;" xml:space="preserve">
<style type="text/css">
	.st0{fill:#FFFFFF;}
	.st1{fill:#EEFFF3;}
	.st2{fill:#68B480;}
	.st3{fill:#EBF6E6;}
	.st4{fill:#3D9902;}
	.st5{fill:#D6D3D3;}
	.st6{fill:#F4F2F2;}
	.st7{fill:#785298;}
	.st8{fill:#FF7B5B;}
	.st9{fill:#F2A682;}
	.st10{fill:#112129;}
	.st11{fill:#22343D;}
	.st12{fill:#FFC5B1;}
	.st13{fill:#745360;}
	.st14{fill:#FFB19F;}
	.st15{fill:#FFA091;}
	.st16{fill:#654286;}
	.st17{fill:#5B5974;}
	.st18{fill:none;stroke:#BABB87;stroke-width:3;stroke-linecap:round;stroke-linejoin:round;stroke-miterlimit:10;}
	.st19{fill:#519F8D;}
	.st20{fill:#192A40;}
	.st21{fill:#6752FF;}
	.st22{fill:#6DCC88;}
	
		.st23{opacity:0.25;fill:none;stroke:#FFFFFF;stroke-width:0.5946;stroke-linecap:round;stroke-linejoin:round;stroke-miterlimit:10;}
	.st24{fill:url(#SVGID_1_);}
	.st25{fill:url(#SVGID_2_);}
	.st26{fill:#2A246D;}
	.st27{fill:#04074A;}
	.st28{fill:url(#SVGID_3_);}
	.st29{opacity:0.99;}
	.st30{fill:url(#SVGID_4_);}
	.st31{fill:url(#SVGID_5_);}
	.st32{fill:url(#SVGID_6_);}
	
		.st33{opacity:0.25;fill:none;stroke:#FFFFFF;stroke-width:0.4465;stroke-linecap:round;stroke-linejoin:round;stroke-miterlimit:10;}
	.st34{fill:url(#SVGID_7_);}
	.st35{fill:url(#SVGID_8_);}
	.st36{fill:none;stroke:#F0F1FC;stroke-width:0.2232;stroke-miterlimit:10;}
	.st37{fill:none;stroke:#000000;stroke-width:0.2232;stroke-miterlimit:10;}
	.st38{fill:#4D3DFF;}
	.st39{fill:url(#SVGID_9_);}
	.st40{fill:none;}
	
		.st41{opacity:0.25;fill:none;stroke:#FFFFFF;stroke-width:0.4465;stroke-linecap:round;stroke-linejoin:round;stroke-miterlimit:10;stroke-dasharray:1.5627;}
	.st42{fill:#98EDAF;}
	.st43{fill:#BAF4C4;}
	
		.st44{opacity:0.45;fill:none;stroke:#000000;stroke-width:0.4465;stroke-linecap:round;stroke-linejoin:round;stroke-miterlimit:10;}
	.st45{fill:#AAF2BB;}
	.st46{opacity:0.25;}
	.st47{opacity:0.25;fill:#68B480;}
	.st48{fill:#D4F4C3;}
	.st49{opacity:0.25;fill:#D4F4C3;}
	.st50{fill:#8785C9;}
</style>
<g>
	<g>
		<g>
			<path class="st0" d="M760.1,588c0.2-0.1,1.2,1.2,2.6,3.8c1.5,2.6,3.3,6.5,5,11.5c3.5,10.1,5.7,24.9,4.4,41.1
				c-1.3,16.2-5,30.4-7.9,40.6c-3,10.1-5.1,16.3-5.5,16.2c-0.4-0.1,1.1-6.5,3.5-16.7c2.4-10.2,5.7-24.4,7-40.2
				c1.3-15.9-0.5-30.3-3.4-40.3C762.9,593.9,759.6,588.2,760.1,588z"/>
		</g>
		<g>
			<path class="st0" d="M770.1,506.9c0.2-0.1,1.4,2.1,3.4,6.2c2,4.1,4.8,10,8.2,17.4c6.6,14.8,15.5,35.4,22,59.4
				c3.2,12,5.3,23.7,6.4,34.4c1.1,10.7,1.2,20.5,0.7,28.6c-0.5,8.1-1.6,14.7-2.6,19.1c-1,4.4-1.8,6.8-1.9,6.8
				c-0.5-0.1,1.9-9.9,2.4-26c0.6-16.1-1.5-38.4-7.9-62.1c-6.4-23.7-14.9-44.4-21-59.4c-3.1-7.5-5.6-13.5-7.3-17.7
				C770.8,509.4,769.9,507,770.1,506.9z"/>
		</g>
	</g>
	<g>
		<g>
			<path class="st0" d="M400.6,602.1c0.3,0.4-3,3.6-7.4,9.5c-1.1,1.5-2.3,3.1-3.4,5c-1.2,1.8-2.2,3.9-3.4,6
				c-2.2,4.3-4.2,9.3-5.8,14.7c-1.5,5.4-2.4,10.7-2.9,15.5c-0.1,2.4-0.4,4.7-0.3,6.9c-0.1,2.2,0.1,4.2,0.2,6
				c0.5,7.4,1.7,11.9,1.2,12c-0.3,0.1-2.2-4.2-3.3-11.8c-0.3-1.9-0.5-3.9-0.6-6.2c-0.2-2.2,0-4.6,0-7.1c0.3-5,1.2-10.5,2.8-16.1
				c1.6-5.6,3.9-10.7,6.2-15.1c1.3-2.2,2.4-4.3,3.8-6.1c1.2-1.9,2.5-3.5,3.8-4.9C396.5,604.5,400.4,601.8,400.6,602.1z"/>
		</g>
		<g>
			<path class="st0" d="M408.5,628.1c0.2,0.4-1.6,1.8-4.1,4.6c-1.2,1.4-2.5,3.1-3.8,5.1c-1.2,2.1-2.4,4.4-3.3,7
				c-0.9,2.6-1.4,5.2-1.7,7.6c-0.2,2.4-0.3,4.6-0.2,6.4c0.2,3.7,0.8,5.9,0.4,6.1c-0.3,0.1-1.7-2-2.5-5.8c-0.4-1.9-0.6-4.3-0.5-6.9
				c0.2-2.6,0.7-5.5,1.6-8.3c1-2.9,2.4-5.4,3.9-7.6c1.5-2.1,3.1-3.9,4.6-5.1C406,628.6,408.3,627.8,408.5,628.1z"/>
		</g>
	</g>
	<g>
		<g>
			<path class="st0" d="M299,386.1c0.2-0.1,1.5,1.2,3.8,3.7c1.2,1.2,2.5,2.8,4,4.7c1.5,1.9,3.2,4,4.9,6.5c0.9,1.2,1.7,2.6,2.7,3.9
				c0.9,1.4,1.8,2.9,2.7,4.4c1.9,3,3.6,6.4,5.5,10c3.5,7.2,6.8,15.4,9.5,24.2c2.6,8.9,4.2,17.5,5.2,25.5c0.4,4,0.8,7.8,0.8,11.3
				c0,1.8,0.2,3.5,0.1,5.1c0,1.6-0.1,3.2-0.1,4.7c0,3-0.3,5.7-0.5,8.1c-0.2,2.4-0.5,4.4-0.8,6.1c-0.6,3.3-1,5.1-1.2,5.1
				c-0.5-0.1,0.5-7.4,0.4-19.4c0-1.5-0.1-3-0.1-4.7c0-1.6-0.2-3.3-0.3-5.1c-0.1-3.5-0.7-7.2-1.1-11.1c-1.1-7.8-2.8-16.3-5.3-25
				c-2.6-8.7-5.8-16.7-9.1-23.9c-1.8-3.5-3.3-6.9-5.1-9.9c-0.9-1.5-1.6-3-2.5-4.4c-0.9-1.4-1.7-2.7-2.5-4
				C303.4,392.1,298.6,386.4,299,386.1z"/>
		</g>
		<g>
			<path class="st0" d="M332.5,400c0.3-0.2,3.7,3,8,9.1c2.2,3.1,4.5,6.9,6.7,11.3c2.2,4.5,4.2,9.5,5.9,15c1.6,5.5,2.6,10.9,3.2,15.8
				c0.5,4.9,0.7,9.4,0.5,13.2c-0.3,7.5-1.4,12-1.8,12c-0.5-0.1-0.1-4.6-0.3-12c-0.1-3.7-0.5-8-1.1-12.8c-0.7-4.8-1.8-10-3.4-15.3
				c-1.6-5.3-3.5-10.3-5.5-14.7c-2-4.4-4.1-8.2-6-11.4C335,403.9,332.2,400.3,332.5,400z"/>
		</g>
	</g>
</g>
<path class="st1" d="M66.1,144c0.1-17.7,18-48.3,35.6-50.7c14.4-1.9,19.2,4.8,21.9,11.2c6.6-8.3,16.8-13.6,28.2-13.6
	c12.3,0,19.7,6.4,26.2,15.9c4.5-3.5,21.9-12.5,34.3,2.9c8,9.9,4.8,17,4.8,17s0.6-7.1,12.2-7.1c25.9,0,23.4,25.6,23.4,25.6l-42.5-1.2
	H66.1z"/>
<path class="st2" d="M382.1,144c0.1-17.7,18-48.3,35.6-50.7c14.4-1.9,19.2,4.8,21.9,11.2c6.6-8.3,16.8-13.6,28.2-13.6
	c12.3,0,19.7,6.4,26.2,15.9c4.5-3.5,21.9-12.5,34.3,2.9c8,9.9,4.8,17,4.8,17s0.6-7.1,12.2-7.1c25.9,0,23.4,25.6,23.4,25.6l-42.5-1.2
	H382.1z"/>
<g>
	<path class="st3" d="M105.2,791c0,0-145.1-177.2-60.8-269.7c84.4-92.4,710.9-322,786.3-292.9c171.5,66.4,36.6,526.5-24.8,556.1
		L105.2,791z"/>
	<g>
		<path class="st21" d="M335.4,753.6c-4.7,6.9-26,7.7-29.7,2.6c-3.6-5.1-7.3-164.6-23.3-220.7c-9.8,16.8-4.5,214.4-8.6,219
			c-1.8,2-33.8,9-35.7-2.4c-9.5-56.5-6.3-181.8-3.8-242c0.4-10.9,0.9-19.7,1.2-25.5c17.2,9.6,67.8,14.5,81.2,5.2
			c0.3,0.7,0.5,1.4,0.8,2.2C343.8,566.5,339.8,747.2,335.4,753.6z"/>
		<path class="st2" d="M274.3,784.4h-56.4c0,0,0.6-16.8,10.7-17.6c1.8-0.1,3.4,0.1,4.8,0.6c6.1,2.2,7.5,9.4,7.5,9.4h31.8
			C272.8,776.8,274.5,780.9,274.3,784.4z"/>
		<path class="st22" d="M271.6,776.8h-30.6c0,0-1.4-7.2-7.5-9.4c3.1-2.2,8.3-6.1,9.4-8.4c10.7-2.3,24.7-1.2,25.7,0
			C269.4,760.2,271.6,776.8,271.6,776.8z"/>
		<path class="st2" d="M237.6,764.3c0,0,6.5,1.3,8.5,1c2-0.3,9.5-17.1,8.5-19c-1-2-12.3-1.2-13.3,0
			C240.4,747.5,239.9,760.3,237.6,764.3z"/>
		<path class="st2" d="M304.3,784.6l56.4-0.3c0,0-0.7-16.8-10.8-17.5c-1.8-0.1-3.4,0.1-4.8,0.6c-6.1,2.2-7.5,9.4-7.5,9.4l-31.8,0.2
			C305.8,777,304.1,781.1,304.3,784.6z"/>
		<path class="st22" d="M307,776.9l30.6-0.2c0,0,1.4-7.2,7.5-9.4c-3.1-2.2-8.4-6.1-9.4-8.4c-10.7-2.3-24.7-1.1-25.7,0.1
			C309,760.4,307,776.9,307,776.9z"/>
		<path class="st2" d="M340.9,764.3c0,0-6.5,1.4-8.5,1.1c-2-0.3-9.5-17-8.6-19c1-2,12.3-1.2,13.3-0.1
			C338.1,747.5,338.6,760.3,340.9,764.3z"/>
		<path class="st23" d="M253,494.9c0,0,3.1,11.8-11.7,20.7"/>
		<path class="st23" d="M304.8,498.9c0,0,1,13.7,17.4,16.8"/>
		<path class="st23" d="M246,527.2c0,0-13.9,138.1,0,215.3"/>
		<path class="st23" d="M290.1,535.6c0,0,25,139.6,20.3,218.1"/>
		<linearGradient id="SVGID_1_" gradientUnits="userSpaceOnUse" x1="380.5407" y1="331.0817" x2="418.9395" y2="262.0941">
			<stop  offset="0" style="stop-color:#FCAAAA"/>
			<stop  offset="1" style="stop-color:#FFCDAE"/>
		</linearGradient>
		<path class="st24" d="M379.5,310.4c0,0,21.2-25.3,22.8-28.1c1.6-2.8,5.4-17.8,10.7-18.8c5.3-1,11.1,2.5,12.7,6.6
			c1.7,4.1-11.8,17.2-12.7,19.8c-0.9,2.6-24.6,35.3-24.6,35.3"/>
		
			<linearGradient id="SVGID_2_" gradientUnits="userSpaceOnUse" x1="-457.8501" y1="181.5775" x2="-419.4515" y2="112.5901" gradientTransform="matrix(-0.9598 -0.2807 -0.2807 0.9598 -143.27 -14.8818)">
			<stop  offset="0" style="stop-color:#FCAAAA"/>
			<stop  offset="1" style="stop-color:#FFCDAE"/>
		</linearGradient>
		<path class="st25" d="M252,268.4c0,0-13.2-30.2-14-33.4c-0.8-3.2-0.2-18.6-5-21c-4.8-2.4-11.3-0.7-14.1,2.8
			c-2.7,3.5,6.5,19.8,6.7,22.5c0.1,2.8,13.7,40.8,13.7,40.8"/>
		<path class="st26" d="M235.2,492.8c-3-1.3-4.5-4.7-3.3-7.7c6.1-15.5,29.2-78.4,22.4-121.2c-7.8-49.1-20.8-99.1-20.8-99.1l15.2-5.6
			c0,0,35.5,88.3,45.7,97.8c10.2,9.4,32.4,4.4,41.1-3.3s42.1-44.2,42.1-44.2l13.5,15.7c0,0-52.5,75.9-60.7,99.3
			c-8.2,23.4,1.5,79.7-8.7,80.7C312.9,506.1,251.5,499.8,235.2,492.8z"/>
		<path class="st27" d="M347.4,329.5c0,0-1.9,1.7-9.1,2.4c-0.1,0-0.2,0-0.3,0c-17.1,1.5-25.6-14.5-29.1-14.5
			c-3.5,0-2.2,10.8-2.6,15.4c-0.3,3-3.5,5.9-5.6,7.5c0,0,0,0,0,0c-1.1,0.8-2,1.4-2,1.4c1.1-16-12.2-29.7-8.9-38.8
			c3.3-9.1,10.6-8.7,10.6-8.7s-1.3-7.1,2.6-9.9c3.9-2.8,14.1-3.5,22.1,6.1C365.6,285.9,347.4,329.5,347.4,329.5z"/>
		<linearGradient id="SVGID_3_" gradientUnits="userSpaceOnUse" x1="296.5477" y1="344.7454" x2="338.3006" y2="344.7454">
			<stop  offset="0" style="stop-color:#FCAAAA"/>
			<stop  offset="1" style="stop-color:#FFCDAE"/>
		</linearGradient>
		<path class="st28" d="M338.3,331.9c-1.7,6-7.3,21.7-19.6,24.3c-5.4,5.8-2.8,15.5-11.3,15.9c-8.5,0.4-13.1-4.6-9.9-12.8
			c2.1-5.4,2.9-13.8,3.2-19c0,0,0,0,0,0c2.2-1.6,5.3-4.5,5.6-7.5c0.4-4.6-0.9-15.4,2.6-15.4c3.5,0,12,16,29.1,14.5
			C338.1,331.9,338.2,331.9,338.3,331.9z"/>
		<path class="st26" d="M373.6,309.5c0,0,14.5,21.2,17.4,21.5c2.8,0.3,6.4-5,5.7-8.3c-0.7-3.3-13.8-18.4-17.1-18.4
			S372.5,307.9,373.6,309.5z"/>
		<path class="st26" d="M229.9,270.2c0,0,24.9-6.1,26.2-8.6c1.3-2.5-2.5-7.8-5.7-8.3c-3.3-0.5-22.1,6.4-23.2,9.5
			C226,265.7,228,270.6,229.9,270.2z"/>
	</g>
	<g>
		<g>
			<path class="st26" d="M545.4,746.3c-0.5,4-29.9,4.1-31.2,0c-1.3-4.1-40.4-197-40.4-197l-33.6,197c0,0-29.6,2.3-29.6-6.8
				c0-9,18.4-240.1,18.6-242.5c2.3,4.7,7.1,8.5,15.8,10.7c19.1,4.8,49.6,2.5,62.7-18.4C514.1,499.4,545.9,742.3,545.4,746.3z"/>
			<g class="st29">
				<path class="st22" d="M512.2,784.6h69.7c0,0,0.6-2.5,0.2-5.4c-0.3-2.6-1.5-5.4-4.6-7c-6.6-3.4-31.8-15.8-37.3-21.5
					c-5.5-5.8-4.4-8.3-7-8.4c0,0-15-1.2-16.7,1c-1.4,1.7-3.1,25.1-3.9,35.9C512.3,782.4,512.2,784.6,512.2,784.6z"/>
				<path class="st22" d="M561,761.6c0,0-6,5.8-9,6.6c-3,0.8-18.4-12.4-19.5-16.1c-1.1-3.7-2.3-18.2-2.3-18.2s9.3,0,12.6,0
					s2.9,17.2,2.9,17.2S562.4,760.3,561,761.6z"/>
				<path class="st22" d="M512.2,784.6h69.7c0,0,0.6-2.5,0.2-5.4h-69.5C512.3,782.4,512.2,784.6,512.2,784.6z"/>
			</g>
			<path class="st27" d="M482,331.2c0,0,21.5-23.6,2-35.5c-16.2-15-19-14.8-31.6-12.4c-12.6,2.4-23.6,13.9-23,36
				c0.7,22.1-30.8,39.9-24.7,63.1c6.1,23.2-22.3,65.2-15.6,86c6.7,20.8,34.1,40.5,49.7,27.3c15.6-13.2,22.1-135.2,22.1-135.2
				L472,337L482,331.2z"/>
			<path class="st21" d="M499.4,456.9c2.3,15.1,11.5,27.1,8.2,32.3c-13.1,20.9-43.6,23.2-62.7,18.4c-8.7-2.2-13.5-6-15.8-10.7
				c-2.7-5.7-1.8-12.6,0.6-19.5c4.3-12.6,4.3-51.4-4.1-67.1c-8.5-15.7-18-21.4-13-28.5c5-7.2,39-34.3,39-34.3s41.5,7.6,45,8.8
				c0.4,0.1,0.9,0.6,1.5,1.4c4.1,5.4,11.7,25.4,12.9,44.3c0.1,1.2,0.1,2.4,0.2,3.7C511.5,428.2,495.5,430.8,499.4,456.9z"/>
			<linearGradient id="SVGID_4_" gradientUnits="userSpaceOnUse" x1="447.7259" y1="339.2271" x2="484.0528" y2="339.2271">
				<stop  offset="0" style="stop-color:#FCAAAA"/>
				<stop  offset="1" style="stop-color:#FFCDAE"/>
			</linearGradient>
			<path class="st30" d="M482.2,306.5c0,0,4.8,20.2-1.1,34.5c-5.9,14.3-10.8,13.9-10.8,13.9s2.4,14.3-5,16.3
				c-7.4,2-15.6,1.3-17.6-18.9c7.4-8.9,9.1-11.9,7.6-16.9c-1.5-5-0.7-11.7,5.4-11.1C466.8,325,483.5,327.4,482.2,306.5z"/>
			<path class="st2" d="M427.2,432.5c-0.3,0.3-0.6,0.6-0.9,0.9c-7.9,7.6-17.5,10.3-22,9.5c-1.2-0.2-2-0.7-2.4-1.3
				c-2-3.2-2.4-60.4,12-61.3C425.4,379.6,430.2,401.9,427.2,432.5z"/>
			<linearGradient id="SVGID_5_" gradientUnits="userSpaceOnUse" x1="404.2522" y1="425.456" x2="461.2758" y2="425.456">
				<stop  offset="0" style="stop-color:#FCAAAA"/>
				<stop  offset="1" style="stop-color:#FFCDAE"/>
			</linearGradient>
			<path class="st31" d="M458.3,413.4c-1.1,5.9-24.6,66.4-43.8,58.1c-7.8-3.3-9.7-22.1-10.2-28.6c4.6,0.8,14.1-1.9,22-9.5l-0.2,4.1
				c0,0,21.6-28.3,21.6-32.1c0-3.7,0.2-27.3,2.1-26.9c1.9,0.5,2.4,19.4,4.9,18.9c2.4-0.5,3.3-13.7,5.7-13.8
				C462.9,383.5,459.4,407.6,458.3,413.4z"/>
			<path class="st2" d="M529.5,405.4c-0.6,0.6-1.3,1.1-2,1.4c-3.5,1.4-10.6-1.6-16.7-4.7c-1.2-18.9-8.8-38.9-12.9-44.3
				c8.5,4.3,33.7,17.1,36.3,20.9c0.6,0.9,1,2.5,1.1,4.5C535.9,389.9,533.6,401.2,529.5,405.4z"/>
			<linearGradient id="SVGID_6_" gradientUnits="userSpaceOnUse" x1="529.511" y1="391.6276" x2="608.0441" y2="391.6276">
				<stop  offset="0" style="stop-color:#FCAAAA"/>
				<stop  offset="1" style="stop-color:#FFCDAE"/>
			</linearGradient>
			<path class="st32" d="M608,375.7c0,0-23.6,35.4-46,41.2c-3,2-20.8-5.9-32.5-11.6c4.1-4.2,6.4-15.5,5.9-22.3
				c5.4,2.9,20.3,10.8,23.6,11.9c4.1,1.4,47.9-29,47.9-29L608,375.7z"/>
			<g class="st29">
				<path class="st22" d="M443.2,784.6h-69.7c0,0-0.6-2.5-0.2-5.4c0.3-2.6,1.5-5.4,4.6-7c6.6-3.4,31.8-15.8,37.3-21.5
					c5.5-5.8,4.4-8.3,7-8.4c0,0,15-1.2,16.7,1c1.4,1.7,3.1,25.1,3.9,35.9C443.1,782.4,443.2,784.6,443.2,784.6z"/>
				<path class="st22" d="M394.4,761.6c0,0,6,5.8,9,6.6c3,0.8,18.4-12.4,19.5-16.1c1.1-3.7,2.3-18.2,2.3-18.2s-9.3,0-12.6,0
					c-3.2,0-2.9,17.2-2.9,17.2S393,760.3,394.4,761.6z"/>
				<path class="st22" d="M443.2,784.6h-69.7c0,0-0.6-2.5-0.2-5.4h69.5C443.1,782.4,443.2,784.6,443.2,784.6z"/>
			</g>
		</g>
		<path class="st33" d="M440.1,512.2c0,0,2.4,9.8-7.4,15.6"/>
		<line class="st33" x1="440.1" y1="527.8" x2="421" y2="721.1"/>
		<line class="st33" x1="478" y1="549.9" x2="521.9" y2="735.8"/>
	</g>
	<g>
		<path class="st26" d="M737.1,735.7c-2.1,2.9-26,6-30.6,1.5c-4.6-4.4,0.3-68.5-4.8-87.7c-5.1-19.2-32.6-110.5-35.1-110.5
			c-2.4,0-27.5,78.1-31.7,90.7c-4.2,12.6-54.7,106.9-56.5,108.5c-1.8,1.6-32.3,3-34.2-6.1c-2-9.1,43.4-102.4,48.4-141.9
			c3.6-28.5,12.5-69.8,17.1-90.6c7.9,2,17.8,2.9,28.2,1.1c7.5-1.3,13.1-6.6,17-14.5c7.8,0.9,19.3-0.1,27.5-1.4
			c0.1,4.7,0.4,7.8,1.1,8.8c3.6,5.4,16.2,3.5,24.4-0.9c7.8,29.1,25.9,96.7,32.1,116.4C747.8,634.6,739.2,732.9,737.1,735.7z"/>
		<path class="st27" d="M778.8,311.3L778.8,311.3c-1.1,0-2-0.9-2-2v-44c0-1.1,0.9-2,2-2l0,0c1.1,0,2,0.9,2,2v44
			C780.7,310.4,779.9,311.3,778.8,311.3z"/>
		<linearGradient id="SVGID_7_" gradientUnits="userSpaceOnUse" x1="694.4661" y1="362.8098" x2="826.5839" y2="301.1984">
			<stop  offset="0" style="stop-color:#FCAAAA"/>
			<stop  offset="1" style="stop-color:#FFCDAE"/>
		</linearGradient>
		<path class="st34" d="M724.1,352.3c0,0,7.8,2.4,8.7,2.4c0.9,0,43.8-45.3,45.3-47.5c1.5-2.2,3.7-23.2,5.4-24.5
			c1.7-1.3,7.4,19,3.5,31.2c-4.6,14.3-42.7,66.4-47.5,66.4c-4.8,0-27.1-4.6-27.1-4.6"/>
		<path class="st21" d="M622.1,341c0,0,3.9-24.1,28-22.8c24.1,1.3,22.3,18.5,22.3,18.5L622.1,341z"/>
		<path class="st2" d="M683.3,428.4c0,1.2,0,2.4,0,3.5c0,1.4,0,2.8-0.1,4.2c-0.1,3.6-0.1,7.1-0.2,10.6c0,0.5,0,1.1,0,1.6
			c0,0.7,0,1.3,0,2c0,1.3-0.1,2.6-0.1,3.8c0,0.5,0,0.9,0,1.4c0,0.7,0,1.4-0.1,2.1c0,0.2,0,0.4,0,0.6c0,0.5,0,1,0,1.5
			c0,1.2-0.1,2.4-0.1,3.6c0,0.5,0,1.1,0,1.6c-0.1,2.6-0.1,5.1-0.2,7.4c0,1.2,0,2.4-0.1,3.5v0.4c-0.1,3.2-0.1,6.1,0,8.6
			c-8.2,1.4-19.7,2.3-27.5,1.4c0.2-0.4,0.4-0.8,0.6-1.3c0.1-0.2,0.2-0.4,0.3-0.6c0.2-0.5,0.4-0.9,0.6-1.4c0,0,0-0.1,0-0.1
			c0.2-0.5,0.4-1.1,0.6-1.6c0-0.1,0.1-0.2,0.1-0.3c0.1-0.4,0.3-0.7,0.4-1.1c0.1-0.2,0.1-0.4,0.2-0.6c0.2-0.7,0.4-1.4,0.6-2
			c0.2-0.6,0.3-1.2,0.5-1.7c0.2-0.6,0.3-1.1,0.5-1.7c0.1-0.3,0.1-0.6,0.2-0.9c0.2-1,0.5-2.1,0.7-3.1c0.1-0.5,0.2-1,0.3-1.5
			c0.1-0.4,0.2-0.8,0.2-1.2c0.1-0.7,0.2-1.5,0.4-2.2c0.1-0.6,0.2-1.3,0.3-1.9c0.1-0.9,0.2-1.8,0.4-2.8c0.2-1.5,0.3-3,0.5-4.6
			c0.1-0.8,0.1-1.5,0.2-2.3c0,0,0-0.1,0-0.1c0,0,0,0,0,0c0.2-2.3,0.3-4.6,0.4-6.9c0-0.1,0-0.2,0-0.2c0.2-6.6,0.1-13.4-0.3-20.1
			c-0.2-2.7-0.3-5.5-0.6-8.2c-2.9-33.9-29.6-72.5-34.6-79.6c5.8-2.5,26-10.4,40-4.7C681.3,348.6,683.5,391,683.3,428.4z"/>
		<path class="st27" d="M683.5,296.1c-2.1,1.1-4.1,1.9-6,2.5c-11,3.4-19.6-0.1-19.6-0.1c-3.3,0.6-3.3,13.2-4.8,13.2
			c-1.5,0-1.5-5.2-4.8-7.7c-3.3-2.5-8.7,1.9-5.9,7.1c2.8,5.2,0,14.5,0,14.5s-0.5-1.7-1.7-4.1c0,0,0,0,0,0c-0.8-1.7-2-3.7-3.5-5.8
			c-3.9-5.2-23.4-18-17.1-29.9c6.3-11.9,18.2-9.3,18.2-9.3s0.6-16.9,8.7-23.7c-3,4.6-3.9,14.3-3.9,14.3s7.8-13.9,17.8-13.2
			c10,0.6,13.5,10.2,13.5,10.2s4.1-6.9,12.8-2.4C695.9,266.2,697.2,289,683.5,296.1z"/>
		<linearGradient id="SVGID_8_" gradientUnits="userSpaceOnUse" x1="602.4184" y1="321.2797" x2="709.4788" y2="325.51">
			<stop  offset="0" style="stop-color:#FCAAAA"/>
			<stop  offset="1" style="stop-color:#FFCDAE"/>
		</linearGradient>
		<path class="st35" d="M675.1,325.6c-2,5.9-10,5.2-11.1,4.8c-1.1-0.4,1.5,11.7-1.5,15.8c-3,4.1-17.4,4.3-17.6-4.6
			c-0.2-8.6-3.8-19.5-4-20.2c1.2,2.5,1.7,4.1,1.7,4.1s2.8-9.3,0-14.5c-2.8-5.2,2.6-9.6,5.9-7.1c3.3,2.5,3.3,7.7,4.8,7.7
			c1.5,0,1.5-12.6,4.8-13.2c0,0,8.6,3.4,19.6,0.1C678.4,307.5,676.7,320.6,675.1,325.6z"/>
		<path class="st36" d="M640.9,321.5C640.9,321.5,640.9,321.5,640.9,321.5"/>
		<path class="st21" d="M662.7,445.8c0,0.1,0,0.2,0,0.2c-0.1,2.3-0.2,4.6-0.4,6.9c0,0,0,0,0,0c0,0,0,0.1,0,0.1
			c-0.1,0.8-0.1,1.6-0.2,2.3c-0.1,1.5-0.3,3.1-0.5,4.6c-0.1,0.9-0.2,1.9-0.4,2.8c-0.1,0.6-0.2,1.3-0.3,1.9c-0.1,0.7-0.2,1.5-0.4,2.2
			c-0.1,0.4-0.2,0.8-0.2,1.2c-0.1,0.5-0.2,1-0.3,1.5c-0.2,1.1-0.4,2.1-0.7,3.1c-0.1,0.3-0.2,0.6-0.2,0.9c-0.1,0.6-0.3,1.2-0.5,1.7
			c-0.2,0.6-0.3,1.2-0.5,1.7c-0.2,0.7-0.4,1.4-0.6,2c-0.1,0.2-0.1,0.4-0.2,0.6c-0.1,0.4-0.3,0.7-0.4,1.1c0,0.1-0.1,0.2-0.1,0.3
			c-0.2,0.5-0.4,1.1-0.6,1.6c0,0,0,0.1,0,0.1c-0.2,0.5-0.4,1-0.6,1.4c-0.1,0.2-0.2,0.4-0.3,0.6c-0.2,0.4-0.4,0.8-0.6,1.3
			c-3.9,7.9-9.4,13.2-17,14.5c-10.4,1.8-20.3,0.9-28.2-1.1c-9.7-2.4-16.4-6.6-17.1-9.6c-1.3-5.5,21.8-63.8,23.4-79.7
			c1.6-15.9-8.8-46.2-7.2-54c1.3-6.2,7.3-14.4,13.1-17.9c1.1-0.6,2.2-1.1,3.2-1.4h0c0.4-0.1,0.9-0.2,1.3-0.2c0,0,0.1,0.2,0.3,0.4
			c0.1,0.2,0.3,0.4,0.5,0.7c5,7,31.7,45.7,34.6,79.6c0.2,2.7,0.4,5.5,0.6,8.2C662.8,432.4,662.9,439.2,662.7,445.8z"/>
		<path class="st2" d="M631.1,423.4L631.1,423.4c0,0.4-0.1,0.6-0.2,0.6c0,0-0.1,0.1-0.3,0.1c-2.2,0.5-17.6,1.3-26.5,0.4
			c-3.5-0.4-6-1-6.2-2.1c-0.6-3.9,4.9-62.8,10.7-66.1c0,0,15.9,4.6,18.8,17.2C630.4,385.4,631.7,418.3,631.1,423.4z"/>
		<path class="st21" d="M714.9,485.8c-0.7,2.5-3.5,5-7.1,6.9c-8.2,4.4-20.8,6.3-24.4,0.9c-0.7-1-1-4.1-1.1-8.8c0-2.4,0-5.3,0-8.6
			v-0.4c0-1.1,0-2.3,0.1-3.5c0.1-2.3,0.1-4.8,0.2-7.4c0-0.5,0-1.1,0-1.6c0-1.2,0.1-2.3,0.1-3.6c0-0.5,0-1,0-1.5c0-0.2,0-0.4,0-0.6
			c0-0.7,0-1.4,0.1-2.1c0-0.5,0-0.9,0-1.4c0-1.3,0.1-2.5,0.1-3.8c0-0.7,0-1.3,0-2c0-0.5,0-1.1,0-1.6c0.1-3.4,0.1-7,0.2-10.6
			c0-1.4,0-2.8,0.1-4.2c0-1.2,0-2.4,0-3.5c0.2-37.4-2-79.9-16-95.2c-0.2-0.2-0.4-0.5-0.7-0.7c-0.8-0.8-1.6-1.5-2.5-2.1
			c0.2,0.1,2.6,1,5.9,2.6c0.8,0.4,1.6,0.8,2.5,1.3c0,0,0,0,0,0c1,0.5,2.1,1.1,3.2,1.8c5.7,3.3,12,7.8,14.8,12.9
			c2,3.7,3.4,15.1,4.7,29.2c2.4,26.7,4.5,62.9,9.6,74.2C712.6,469.6,717.2,477.7,714.9,485.8z"/>
		<path class="st2" d="M726.7,351.2c-1.5,9.8-9.2,30.8-11.2,30.8c-1.6,0-14.2-1.6-20.3-3.9c-1.3-14.1-2.7-25.5-4.7-29.2
			c-3.4-6.1-11.6-11.3-18-14.7C673,334.4,694.2,337.1,726.7,351.2z"/>
		<path class="st37" d="M672.5,334.3C672.5,334.3,672.5,334.3,672.5,334.3"/>
		<path class="st38" d="M662.3,452.9c1.6-24.1-43.4-101.1-44.3-105.4c-0.6-3,2.1-6.9,3.9-9.1c1.1-0.6,2.2-1.1,3.2-1.4h0l1.6,0.2
			c0.1,0.2,0.3,0.4,0.5,0.7c5,7,31.7,45.7,34.6,79.6C662.9,429.3,663.2,441.6,662.3,452.9z"/>
		<path class="st38" d="M683,446.8c0.9-40.7,0.7-95.6-15.8-113.5c-0.2-0.2-0.4-0.5-0.7-0.7c0.8,0,2,0.1,3.4,0.5
			c1.7,0.5,3.7,1.4,5.7,3c3.4,2.7,6.8,7.6,9,16.2C689.7,372.4,688.5,436.8,683,446.8z"/>
		<linearGradient id="SVGID_9_" gradientUnits="userSpaceOnUse" x1="668.2854" y1="354.7635" x2="546.5811" y2="583.8538">
			<stop  offset="0" style="stop-color:#FCAAAA"/>
			<stop  offset="1" style="stop-color:#FFCDAE"/>
		</linearGradient>
		<path class="st39" d="M665.4,390.6c-1.2,35.9-32.5,87.1-53.7,76.4c-6.6-3.4-7.4-35-7.5-42.5c8.8,0.9,24.2,0.1,26.5-0.4
			c0.1,0,0.2-0.1,0.3-0.1c0.1,0,0.1-0.3,0.2-0.6v0c3.2-5.5,18.8-32,20.1-34.8c1.5-3.1,0.5-12.8,0.4-16.7c-0.1-3.9,1.2-17.5,2.5-17
			c1.3,0.4,0.9,15.7,1.8,15.5c1-0.2,4-18.2,5-18c1,0.2-0.8,20-0.5,22C660.7,376.4,665.8,380.8,665.4,390.6z"/>
		<g>
			<path class="st2" d="M542.2,784.6h79.6c0,0,0.7-2.9,0.2-6.2c-0.4-2.9-1.7-6.1-5.2-8c-7.5-3.9-36.4-18-42.6-24.6
				c-6.3-6.6-5-9.5-8-9.7c0,0-17.1-1.4-19.1,1.2c-1.6,1.9-3.6,28.7-4.4,41.1C542.3,782.1,542.2,784.6,542.2,784.6z"/>
			<path class="st2" d="M598,758.3c0,0-6.9,6.6-10.3,7.5c-3.4,0.9-21-14.2-22.3-18.4s-2.7-20.8-2.7-20.8s10.7,0,14.4,0
				c3.7,0,3.3,19.6,3.3,19.6S599.6,756.8,598,758.3z"/>
			<path class="st26" d="M542.2,784.6h79.6c0,0,0.7-2.9,0.2-6.2h-79.5C542.3,782.1,542.2,784.6,542.2,784.6z"/>
		</g>
		<g>
			<path class="st2" d="M701.6,784.6h79.6c0,0,0.7-2.9,0.2-6.2c-0.4-2.9-1.7-6.1-5.2-8c-7.5-3.9-36.4-18-42.6-24.6
				c-6.3-6.6-5-9.5-8-9.7c0,0-17.1-1.4-19.1,1.2c-1.6,1.9-3.6,28.7-4.4,41.1C701.8,782.1,701.6,784.6,701.6,784.6z"/>
			<path class="st2" d="M757.4,758.3c0,0-6.9,6.6-10.3,7.5c-3.4,0.9-21-14.2-22.3-18.4c-1.3-4.2-2.7-20.8-2.7-20.8s10.7,0,14.4,0
				c3.7,0,3.3,19.6,3.3,19.6S759.1,756.8,757.4,758.3z"/>
			<path class="st26" d="M701.6,784.6h79.6c0,0,0.7-2.9,0.2-6.2h-79.4C701.8,782.1,701.6,784.6,701.6,784.6z"/>
		</g>
		<path class="st40" d="M612.6,486.6c0,0-1.2,5-3,13.1"/>
		<path class="st33" d="M634.8,506.3c0,0-1.5,13.3-15.9,15"/>
		<path class="st41" d="M627.2,526.5c0,0-16.8,84-23,95.7c-6.2,11.7-46.2,104.5-46.2,104.5"/>
		<path class="st41" d="M675.5,542c0,0,38.7,91.2,40,105.5c1.3,14.3,0,79.1,0,79.1"/>
	</g>
	<g>
		
			<rect x="136.9" y="757.7" transform="matrix(-1 -1.224647e-16 1.224647e-16 -1 290.588 1541.7864)" class="st42" width="16.7" height="26.4"/>
		
			<rect x="74.2" y="755.9" transform="matrix(-1 -1.224647e-16 1.224647e-16 -1 165.2192 1539.9371)" class="st42" width="16.7" height="28.2"/>
		
			<rect x="372.8" y="750.6" transform="matrix(-1 -1.224647e-16 1.224647e-16 -1 762.2526 1534.6526)" class="st42" width="16.7" height="33.5"/>
		
			<rect x="310.1" y="748.2" transform="matrix(-1 -1.224647e-16 1.224647e-16 -1 636.8841 1532.3031)" class="st42" width="16.7" height="35.9"/>
		<path class="st43" d="M147.7,526.5c4.3,25.7,13.7,63,18.8,82.6c2.1,8.1,3.5,13.2,3.5,13.2l1.6,2l36.3,47.5h83.6
			c0,0,0.9-28,0.8-60.9c0-2.9,0-5.8-0.1-8.7c-0.4-42.7-2.8-90-11.2-94.6c-15.6-8.4-124.6-13.4-133.9-8.4c-0.3,0.1-0.5,0.4-0.7,0.7
			C144.6,502.9,145.5,513.1,147.7,526.5z"/>
		<g>
			<g>
				<line class="st44" x1="270.1" y1="538.9" x2="263.8" y2="545.2"/>
				<line class="st44" x1="263.8" y1="538.9" x2="270.1" y2="545.2"/>
			</g>
			<g>
				<line class="st44" x1="244" y1="538.9" x2="237.6" y2="545.2"/>
				<line class="st44" x1="237.6" y1="538.9" x2="244" y2="545.2"/>
			</g>
			<g>
				<line class="st44" x1="217.8" y1="538.9" x2="211.5" y2="545.2"/>
				<line class="st44" x1="211.5" y1="538.9" x2="217.8" y2="545.2"/>
			</g>
			<g>
				<line class="st44" x1="191.7" y1="538.9" x2="185.3" y2="545.2"/>
				<line class="st44" x1="185.3" y1="538.9" x2="191.7" y2="545.2"/>
			</g>
			<g>
				<line class="st44" x1="271.6" y1="564" x2="265.3" y2="570.3"/>
				<line class="st44" x1="265.3" y1="564" x2="271.6" y2="570.3"/>
			</g>
			<g>
				<line class="st44" x1="245.5" y1="564" x2="239.1" y2="570.3"/>
				<line class="st44" x1="239.1" y1="564" x2="245.5" y2="570.3"/>
			</g>
			<g>
				<line class="st44" x1="219.3" y1="564" x2="213" y2="570.3"/>
				<line class="st44" x1="213" y1="564" x2="219.3" y2="570.3"/>
			</g>
			<g>
				<line class="st44" x1="193.2" y1="564" x2="186.8" y2="570.3"/>
				<line class="st44" x1="186.8" y1="564" x2="193.2" y2="570.3"/>
			</g>
			<g>
				<line class="st44" x1="273.1" y1="589.1" x2="266.8" y2="595.4"/>
				<line class="st44" x1="266.8" y1="589.1" x2="273.1" y2="595.4"/>
			</g>
			<g>
				<line class="st44" x1="247" y1="589.1" x2="240.6" y2="595.4"/>
				<line class="st44" x1="240.6" y1="589.1" x2="247" y2="595.4"/>
			</g>
			<g>
				<line class="st44" x1="220.8" y1="589.1" x2="214.5" y2="595.4"/>
				<line class="st44" x1="214.5" y1="589.1" x2="220.8" y2="595.4"/>
			</g>
			<g>
				<line class="st44" x1="194.7" y1="589.1" x2="188.3" y2="595.4"/>
				<line class="st44" x1="188.3" y1="589.1" x2="194.7" y2="595.4"/>
			</g>
			<g>
				<line class="st44" x1="274.6" y1="614.2" x2="268.3" y2="620.6"/>
				<line class="st44" x1="268.3" y1="614.2" x2="274.6" y2="620.6"/>
			</g>
			<g>
				<line class="st44" x1="242.1" y1="614.2" x2="248.5" y2="620.6"/>
				<line class="st44" x1="248.5" y1="614.2" x2="242.1" y2="620.6"/>
			</g>
			<g>
				<line class="st44" x1="222.3" y1="614.2" x2="216" y2="620.6"/>
				<line class="st44" x1="216" y1="614.2" x2="222.3" y2="620.6"/>
			</g>
			<g>
				<line class="st44" x1="196.2" y1="614.2" x2="189.8" y2="620.6"/>
				<line class="st44" x1="189.8" y1="614.2" x2="196.2" y2="620.6"/>
			</g>
			<g>
				<line class="st44" x1="276.1" y1="639.3" x2="269.8" y2="645.7"/>
				<line class="st44" x1="269.8" y1="639.3" x2="276.1" y2="645.7"/>
			</g>
			<g>
				<line class="st44" x1="250" y1="639.3" x2="243.6" y2="645.7"/>
				<line class="st44" x1="243.6" y1="639.3" x2="250" y2="645.7"/>
			</g>
			<g>
				<line class="st44" x1="223.8" y1="639.3" x2="217.4" y2="645.7"/>
				<line class="st44" x1="217.4" y1="639.3" x2="223.8" y2="645.7"/>
			</g>
			<g>
				<line class="st44" x1="197.7" y1="639.3" x2="191.3" y2="645.7"/>
				<line class="st44" x1="191.3" y1="639.3" x2="197.7" y2="645.7"/>
			</g>
		</g>
		<path class="st42" d="M102.7,614.6c6.6-1.2,13.6,0.7,19.8,3.9c8.4,4.4,15.3,11.3,17.4,16.3c0.5,1.2,1.2,3.5,2.1,6.6
			c7.8,27.3,28,117.8,28,117.8s46.5,0,98.6-1c67-1.2,143.2-3.8,141.9-9.7c-2.3-9.8-18.4-102.7-46-130.1c-1.7-1.6-3.4-3.1-5.1-4.2
			c-25.7-16.9-57.6-13.6-67.2-12.1c0,2.9,0,5.8,0,8.7c34,3.6,42.6,43.8,44.8,68c0.9,9.7,0.7,16.8,0.6,18.1c0,0.1,0,0.2,0,0.2H225.6
			c0,0-2.4-11.4-6.7-25.4c-5.3-17.6-13.4-39.2-22.9-47.2c-8.6-7.3-17.7-12-26.9-14.8c-0.9-0.3-1.7-0.5-2.6-0.7
			c-16.8-4.5-33.4-2.9-46.5,0.2C113.1,610.8,107.1,612.9,102.7,614.6z"/>
		<path class="st45" d="M66.7,756.3l103.3,2.9c0,0-24.9-112-30.1-124.4c-3.6-8.7-21.7-23.1-37.2-20.2c-3.1,0.6-6,1.8-8.7,3.9
			c0,0,0,0,0,0c-3.3,2.5-6.2,6.3-8.6,11.6C71.2,662.4,66.7,756.3,66.7,756.3z"/>
		<path class="st45" d="M120,609.2c13.1-3.1,29.7-4.7,46.5-0.2c-7.8-29.8-25.4-100.4-20-109c-10.2,2.1-37.5,9.4-40.8,28
			C103.2,541.5,112.2,580.1,120,609.2z"/>
		<path class="st45" d="M218.9,671.8c4.2,14,6.7,25.4,6.7,25.4h112.1c0,0,0-0.1,0-0.2c-13.3-11.5-46.2-25.2-46.2-25.2H218.9z"/>
		<path class="st45" d="M291.5,671.8c0,0,32.9,13.7,46.2,25.2c0.2-4.4,2.1-81-45.4-86.1c0-2.9,0-5.8-0.1-8.7L291.5,671.8z"/>
		<path class="st46" d="M147.7,526.5c4.3,25.7,13.7,63,18.8,82.6c0.9,0.2,1.7,0.5,2.6,0.7c9.1,2.8,18.3,7.5,26.9,14.8
			c9.5,8.1,17.6,29.7,22.9,47.2h67.2L147.7,526.5z"/>
	</g>
	<g>
		<g>
			<path class="st2" d="M844.1,688.1c0,0-3.7-29.5-19-41.6c-15.2-12.2-16.3-31.1-16.3-31.1s-20.7,71.8,5.8,85
				C841,713.5,844.1,688.1,844.1,688.1z"/>
			<path class="st47" d="M808.9,615.3c0,0-7.1,63.3,32,93.3"/>
		</g>
		<g>
			<path class="st2" d="M850.9,351.4c0,0,38.1,124.3,9.3,231.5s10.8,146.6,10.8,146.6l-30.1-30.2c0,0-12.8-94.9-9.6-143.2l9.6-4.9
				l-10.2-8.6C830.7,542.7,857.4,431.9,850.9,351.4z"/>
			<g class="st46">
				<path class="st0" d="M850.9,351.4c3,14.2,5.3,28.5,7.4,42.9c2,14.4,3.6,28.8,4.6,43.3c0.1,1.8,0.3,3.6,0.4,5.4l0.3,5.4
					c0.2,3.6,0.4,7.2,0.5,10.9c0.2,7.3,0.4,14.5,0.3,21.8l0,5.4l0,2.7l-0.1,2.7l-0.5,10.9c0,0.9-0.1,1.8-0.1,2.7l-0.2,2.7l-0.5,5.4
					c-0.4,3.6-0.6,7.2-1.2,10.8l-1.6,10.8c-0.5,3.6-1.2,7.2-1.8,10.7c-0.6,3.6-1.2,7.2-1.8,10.7c-0.6,3.6-1.2,7.2-1.7,10.8
					c-2.2,14.3-4.2,28.7-5.7,43.2c-0.4,3.6-0.7,7.2-1,10.8c-0.3,3.6-0.5,7.2-0.7,10.9c-0.3,7.2-0.6,14.5-0.4,21.8
					c0,7.3,0.5,14.5,1.2,21.7c0.7,7.2,1.8,14.4,3,21.5c0,0.1-0.1,0.2-0.2,0.3c-0.1,0-0.2-0.1-0.3-0.2l0,0c-1.2-7.2-2.3-14.3-3-21.6
					c-0.7-7.2-1.1-14.5-1.1-21.8c-0.1-7.3,0.1-14.5,0.5-21.8c0.3-3.6,0.5-7.2,0.8-10.9c0.3-3.6,0.6-7.2,1-10.8
					c1.5-14.4,3.5-28.8,5.7-43.2c0.5-3.6,1.2-7.2,1.7-10.8c0.6-3.6,1.2-7.2,1.8-10.7c0.6-3.6,1.3-7.2,1.8-10.7l1.6-10.8
					c0.6-3.6,0.8-7.2,1.2-10.8l0.5-5.4l0.3-2.7c0.1-0.9,0.1-1.8,0.1-2.7l0.5-10.9l0.1-2.7l0-2.7l0.1-5.4c0.2-7.3-0.1-14.5-0.2-21.8
					c-0.1-3.6-0.3-7.3-0.5-10.9l-0.3-5.4c-0.1-1.8-0.3-3.6-0.4-5.4c-1-14.5-2.6-28.9-4.6-43.3C856.2,380,853.9,365.6,850.9,351.4z"
					/>
			</g>
		</g>
		<g>
			<path class="st48" d="M848.8,699.4c0,0-8.1-76.3,7.2-106.1h9.9l-5.9-10.4c0,0,32.1-70.2,121.9-97.6c0,0-56.7,37.5-79.8,107
				c-10.9-2.7-18.7-2.2-18.7-2.2l8.2,10.8c0,0-33.4,54.2-28.9,104.8C867.3,756.3,848.8,699.4,848.8,699.4z"/>
			<path class="st49" d="M982,485.3c0,0-138.6,56.5-127.8,212.3"/>
		</g>
		<polygon class="st2" points="794.7,710.5 795.1,723 805.9,784.6 874.9,784.6 885.8,723 887.1,715.9 834.8,712.8 		"/>
		<path class="st3" d="M781.7,697.9v21.4c0,2,1.7,3.7,3.7,3.7h113.1c2.4,0,4.2-2.3,3.6-4.7l-5.8-21.4c-0.4-1.6-1.9-2.7-3.6-2.7
			H785.4C783.3,694.2,781.7,695.9,781.7,697.9z"/>
	</g>
	<path class="st3" d="M916.2,797.4H50.9c-3.5,0-6.4-2.9-6.4-6.4l0,0c0-3.5,2.9-6.4,6.4-6.4h865.4c3.5,0,6.4,2.9,6.4,6.4l0,0
		C922.6,794.5,919.7,797.4,916.2,797.4z"/>
	<g>
		<rect x="79.5" y="417.3" class="st50" width="60.2" height="16.3"/>
		<rect x="102.7" y="441.2" class="st42" width="60.2" height="16.3"/>
		
			<rect x="749.9" y="429.2" transform="matrix(-1 -1.224647e-16 1.224647e-16 -1 1560.0468 874.826)" class="st50" width="60.2" height="16.3"/>
		
			<rect x="726.7" y="453.1" transform="matrix(-1 -1.224647e-16 1.224647e-16 -1 1513.577 922.5528)" class="st42" width="60.2" height="16.3"/>
	</g>
</g>
</svg>
