<?xml version="1.0" encoding="utf-8"?>
<!-- Generator: Adobe Illustrator 23.0.0, SVG Export Plug-In . SVG Version: 6.00 Build 0)  -->
<svg version="1.1" id="Layer_1" xmlns="http://www.w3.org/2000/svg" xmlns:xlink="http://www.w3.org/1999/xlink" x="0px" y="0px"
	 viewBox="0 0 1669 1200" style="enable-background:new 0 0 1669 1200;" xml:space="preserve">
<style type="text/css">
	.st0{fill:none;stroke:#F0F1FC;stroke-width:1.0983;stroke-miterlimit:10;}
	.st1{opacity:0.1;fill:#37A000;enable-background:new    ;}
	.st2{fill:#686868;}
	.st3{fill:#B8E59E;}
	
		.st4{opacity:0.45;fill:none;stroke:#000000;stroke-width:0.5492;stroke-linecap:round;stroke-linejoin:round;stroke-miterlimit:10;}
	.st5{opacity:0.54;fill:#37A000;}
	.st6{fill:#37A000;}
	.st7{opacity:0.21;fill:#37A000;}
	.st8{opacity:0.25;fill:#B8E59E;}
	.st9{opacity:0.25;}
	.st10{fill:#FFFFFF;}
	.st11{opacity:0.25;fill:#37A000;}
	.st12{fill:#A8A8A8;}
	.st13{fill:url(#SVGID_1_);}
	.st14{fill:#2A246D;}
	.st15{fill:#565388;}
	.st16{fill:url(#SVGID_2_);}
	.st17{fill:#A66477;}
	.st18{fill:#7679B4;}
	.st19{fill:#A2A2F4;}
	.st20{fill:url(#SVGID_3_);}
	
		.st21{opacity:0.25;fill:none;stroke:#FFFFFF;stroke-width:0.5492;stroke-linecap:round;stroke-linejoin:round;stroke-miterlimit:10;}
	.st22{fill:url(#SVGID_4_);}
	.st23{fill:#CED2DF;}
	.st24{fill:#EBF1F6;}
	.st25{fill:url(#SVGID_5_);}
	.st26{fill:#565387;}
	.st27{fill:#444176;}
	.st28{fill:url(#SVGID_6_);}
	.st29{fill:url(#SVGID_7_);}
	.st30{fill:none;stroke:#FFFFFF;stroke-width:0.5492;stroke-linecap:round;stroke-linejoin:round;}
	.st31{fill:none;stroke:#FFFFFF;stroke-width:0.5492;stroke-linecap:round;stroke-linejoin:round;stroke-dasharray:2.2059,2.2059;}
	
		.st32{opacity:0.25;fill:none;stroke:#FFFFFF;stroke-width:0.5492;stroke-linecap:round;stroke-linejoin:round;stroke-miterlimit:10;stroke-dasharray:2.1967;}
	.st33{opacity:0.25;fill:#FFFFFF;}
	.st34{fill:#88455E;}
	.st35{fill:url(#SVGID_8_);}
	.st36{fill:#493545;}
	.st37{fill:#3E3D77;}
	.st38{fill:#FFAAC4;}
	.st39{fill:url(#SVGID_9_);}
	.st40{fill:url(#SVGID_10_);}
	.st41{fill:url(#SVGID_11_);}
	.st42{fill:none;stroke:#2A246D;stroke-width:0.2746;stroke-miterlimit:10;}
	.st43{fill:none;stroke:#37A000;stroke-width:1.0983;stroke-miterlimit:10;}
</style>
<g>
	<g>
		<path class="st0" d="M121.4,1015.3c0,0,605.3-756.2,737.3-807c132-50.8,595.6,473.3,392.2,739.2S121.4,1015.3,121.4,1015.3z"/>
		<path class="st1" d="M100,1040.3L100,1040.3c0-33.9,16.3-65.6,43.8-85.4L946,378.3c49.7-35.7,119.2-21.7,151.1,30.5L1450,985.4
			c42.9,70.1-7.5,160.1-89.7,160.1H205.2C147.1,1145.5,100,1098.4,100,1040.3z"/>
	</g>
	<g>
		<rect x="1474" y="1105" class="st2" width="25.6" height="40.3"/>
		<rect x="1569.8" y="1102.1" class="st2" width="25.6" height="43.1"/>
		<rect x="1113.7" y="1094.1" class="st2" width="25.6" height="51.2"/>
		<rect x="1209.5" y="1090.5" class="st2" width="25.6" height="54.8"/>
		<path class="st3" d="M1483.1,751.7c-6.5,39.2-20.9,96.2-28.7,126.1c-3.2,12.4-5.4,20.1-5.4,20.1l-2.4,3.1l-55.5,72.6h-127.7
			c0,0-1.4-42.7-1.3-93c0-4.4,0-8.8,0.1-13.3c0.6-65.2,4.2-137.6,17-144.4c23.8-12.8,190.3-20.5,204.6-12.8c0.4,0.2,0.8,0.6,1.1,1.1
			C1487.8,715.7,1486.5,731.3,1483.1,751.7z"/>
		<g>
			<g>
				<line class="st4" x1="1296.1" y1="770.6" x2="1305.8" y2="780.4"/>
				<line class="st4" x1="1305.8" y1="770.6" x2="1296.1" y2="780.4"/>
			</g>
			<g>
				<line class="st4" x1="1336" y1="770.6" x2="1345.7" y2="780.4"/>
				<line class="st4" x1="1345.7" y1="770.6" x2="1336" y2="780.4"/>
			</g>
			<g>
				<line class="st4" x1="1376" y1="770.6" x2="1385.7" y2="780.4"/>
				<line class="st4" x1="1385.7" y1="770.6" x2="1376" y2="780.4"/>
			</g>
			<g>
				<line class="st4" x1="1415.9" y1="770.6" x2="1425.6" y2="780.4"/>
				<line class="st4" x1="1425.6" y1="770.6" x2="1415.9" y2="780.4"/>
			</g>
			<g>
				<line class="st4" x1="1293.8" y1="809" x2="1303.5" y2="818.7"/>
				<line class="st4" x1="1303.5" y1="809" x2="1293.8" y2="818.7"/>
			</g>
			<g>
				<line class="st4" x1="1333.7" y1="809" x2="1343.4" y2="818.7"/>
				<line class="st4" x1="1343.4" y1="809" x2="1333.7" y2="818.7"/>
			</g>
			<g>
				<line class="st4" x1="1373.7" y1="809" x2="1383.4" y2="818.7"/>
				<line class="st4" x1="1383.4" y1="809" x2="1373.7" y2="818.7"/>
			</g>
			<g>
				<line class="st4" x1="1413.6" y1="809" x2="1423.3" y2="818.7"/>
				<line class="st4" x1="1423.3" y1="809" x2="1413.6" y2="818.7"/>
			</g>
			<g>
				<line class="st4" x1="1291.5" y1="847.4" x2="1301.2" y2="857.1"/>
				<line class="st4" x1="1301.2" y1="847.4" x2="1291.5" y2="857.1"/>
			</g>
			<g>
				<line class="st4" x1="1331.4" y1="847.4" x2="1341.2" y2="857.1"/>
				<line class="st4" x1="1341.2" y1="847.4" x2="1331.4" y2="857.1"/>
			</g>
			<g>
				<line class="st4" x1="1371.4" y1="847.4" x2="1381.1" y2="857.1"/>
				<line class="st4" x1="1381.1" y1="847.4" x2="1371.4" y2="857.1"/>
			</g>
			<g>
				<line class="st4" x1="1411.3" y1="847.4" x2="1421.1" y2="857.1"/>
				<line class="st4" x1="1421.1" y1="847.4" x2="1411.3" y2="857.1"/>
			</g>
			<g>
				<line class="st4" x1="1289.2" y1="885.7" x2="1298.9" y2="895.4"/>
				<line class="st4" x1="1298.9" y1="885.7" x2="1289.2" y2="895.4"/>
			</g>
			<g>
				<line class="st4" x1="1338.9" y1="885.7" x2="1329.2" y2="895.4"/>
				<line class="st4" x1="1329.2" y1="885.7" x2="1338.9" y2="895.4"/>
			</g>
			<g>
				<line class="st4" x1="1369.1" y1="885.7" x2="1378.8" y2="895.4"/>
				<line class="st4" x1="1378.8" y1="885.7" x2="1369.1" y2="895.4"/>
			</g>
			<g>
				<line class="st4" x1="1409.1" y1="885.7" x2="1418.8" y2="895.4"/>
				<line class="st4" x1="1418.8" y1="885.7" x2="1409.1" y2="895.4"/>
			</g>
			<g>
				<line class="st4" x1="1286.9" y1="924.1" x2="1296.7" y2="933.8"/>
				<line class="st4" x1="1296.7" y1="924.1" x2="1286.9" y2="933.8"/>
			</g>
			<g>
				<line class="st4" x1="1326.9" y1="924.1" x2="1336.6" y2="933.8"/>
				<line class="st4" x1="1336.6" y1="924.1" x2="1326.9" y2="933.8"/>
			</g>
			<g>
				<line class="st4" x1="1366.8" y1="924.1" x2="1376.6" y2="933.8"/>
				<line class="st4" x1="1376.6" y1="924.1" x2="1366.8" y2="933.8"/>
			</g>
			<g>
				<line class="st4" x1="1406.8" y1="924.1" x2="1416.5" y2="933.8"/>
				<line class="st4" x1="1416.5" y1="924.1" x2="1406.8" y2="933.8"/>
			</g>
		</g>
		<path class="st3" d="M1551.9,886.4c-10-1.9-20.8,1-30.3,6c-12.9,6.7-23.3,17.3-26.5,24.9c-0.8,1.9-1.9,5.4-3.3,10.1
			c-12,41.7-42.7,179.9-42.7,179.9s-71.1-0.1-150.7-1.5c-102.4-1.8-218.8-5.9-216.8-14.8c3.4-14.9,28.2-156.9,70.2-198.8
			c2.5-2.5,5.1-4.7,7.8-6.4c39.3-25.8,88-20.7,102.7-18.4c-0.1,4.5-0.1,8.9-0.1,13.3c-51.9,5.6-65.1,66.9-68.4,103.9
			c-1.3,14.8-1,25.7-0.9,27.6c0,0.2,0,0.3,0,0.3h171.3c0,0,3.7-17.5,10.2-38.9c8.1-26.8,20.4-59.8,35-72.2
			c13.1-11.2,27.1-18.3,41-22.6c1.3-0.4,2.6-0.8,4-1.1c25.7-6.9,51.1-4.4,71,0.3C1536,880.6,1545.1,883.7,1551.9,886.4z"/>
		<path class="st5" d="M1606.8,1102.8l-157.8,4.5c0,0,38.1-171,46-190c5.5-13.2,33.2-35.3,56.8-30.9c4.7,0.9,9.2,2.8,13.3,6
			c0,0,0,0,0,0c5,3.9,9.5,9.6,13.1,17.8C1600,959.4,1606.8,1102.8,1606.8,1102.8z"/>
		<path class="st5" d="M1525.4,878.1c-20-4.7-45.4-7.2-71-0.3c11.9-45.5,38.8-153.5,30.6-166.6c15.5,3.2,57.3,14.4,62.4,42.8
			C1551.1,774.7,1537.3,833.6,1525.4,878.1z"/>
		<path class="st6" d="M1374.4,973.7c-6.5,21.4-10.2,38.9-10.2,38.9h-171.3c0,0,0-0.1,0-0.3c20.4-17.6,70.6-38.6,70.6-38.6H1374.4z"
			/>
		<path class="st5" d="M1263.4,973.7c0,0-50.2,21-70.6,38.6c-0.2-6.8-3.3-123.8,69.3-131.5c0-4.4,0-8.8,0.1-13.3L1263.4,973.7z"/>
		<path class="st7" d="M1263,974l223.5-238.3c0,0-29.5,138.3-32.5,142.3s-36,74-36,74l-44,22H1263z"/>
	</g>
	<g>
		<g>
			<path class="st3" d="M258.2,976c0,0,6.5-51.7,33.3-73.2c26.8-21.4,28.6-54.7,28.6-54.7s36.3,126.1-10.1,149.3
				C263.6,1020.6,258.2,976,258.2,976z"/>
			<path class="st8" d="M320.1,848.2c0,0,12.5,111.2-56.2,163.9"/>
		</g>
		<g>
			<path class="st6" d="M246.3,384.5c0,0-67,218.4-16.3,406.7c50.8,188.4-19,257.6-19,257.6l52.8-53c0,0,22.5-166.8,17-251.5
				l-17-8.6l17.8-15.1C281.7,720.6,234.8,525.8,246.3,384.5z"/>
			<g class="st9">
				<path class="st10" d="M246.3,384.5c-5.3,25-9.4,50.2-12.9,75.4c-3.4,25.3-6.2,50.6-8,76.1c-3.6,50.8-4,102.1,2.4,152.8
					c0.4,3.2,0.8,6.3,1.3,9.5l1.5,9.4c1,6.3,2.1,12.6,3.2,18.9l1.6,9.4l1.5,9.4c1,6.3,2.1,12.6,3,18.9c4,25.2,7.4,50.5,10,75.9
					c0.4,3.2,0.6,6.3,0.9,9.5l0.8,9.5c0.5,6.4,0.9,12.7,1.3,19.1l0.4,9.6c0.1,3.2,0.3,6.4,0.3,9.6c0.1,6.4,0.3,12.8,0.1,19.1
					c-0.1,12.8-0.9,25.5-2,38.2l-1,9.5c-0.3,3.2-0.8,6.3-1.3,9.5l-0.7,4.7c-0.2,1.6-0.5,3.1-0.8,4.7l-1.6,9.4c0,0.1-0.2,0.3-0.3,0.2
					c-0.1,0-0.3-0.2-0.2-0.3v0l0,0l1.6-9.4c0.3-1.6,0.6-3.1,0.8-4.7l0.7-4.7c0.4-3.2,0.9-6.3,1.3-9.5l1-9.5
					c1.2-12.7,2-25.4,2.1-38.2c0.2-6.4,0-12.7-0.1-19.1c0-3.2-0.2-6.4-0.3-9.6l-0.4-9.6c-0.4-6.4-0.8-12.7-1.3-19.1l-0.8-9.5
					c-0.3-3.2-0.5-6.4-0.9-9.5c-2.6-25.4-6-50.7-10-75.9c-0.9-6.3-2-12.6-3-18.9l-1.5-9.4l-1.6-9.4c-1.1-6.3-2.2-12.6-3.2-18.9
					l-1.5-9.5c-0.5-3.1-0.8-6.3-1.3-9.5c-6.4-50.7-5.9-102-2.3-152.8c1.8-25.4,4.6-50.8,8.1-76.1
					C236.9,434.7,241.1,409.5,246.3,384.5z"/>
			</g>
		</g>
		<g>
			<path class="st6" d="M249.9,995.9c0,0,14.3-134-12.7-186.4h-17.4l10.3-18.2c0,0-56.3-123.3-214.1-171.5c0,0,99.5,65.8,140.2,188
				c19.2-4.7,32.9-3.9,32.9-3.9l-14.4,19c0,0,58.7,95.2,50.8,184C217.4,1095.8,249.9,995.9,249.9,995.9z"/>
			<path class="st11" d="M16,619.8c0,0,243.5,99.3,224.4,372.9"/>
		</g>
		<polygon class="st12" points="345.1,1015.3 344.3,1037.3 340.1,1145.5 204.1,1145.5 184.9,1037.3 182.7,1024.8 274.6,1019.4 		"/>
		<path class="st2" d="M367.9,993.3v37.5c0,3.6-2.9,6.5-6.5,6.5H162.7c-4.3,0-7.4-4.1-6.3-8.2l10.2-37.5c0.8-2.8,3.4-4.8,6.3-4.8
			h188.6C365,986.7,367.9,989.7,367.9,993.3z"/>
	</g>
	<g>
		<linearGradient id="SVGID_1_" gradientUnits="userSpaceOnUse" x1="520.9216" y1="462.6167" x2="601.4245" y2="530.4296">
			<stop  offset="0" style="stop-color:#FCAAAA"/>
			<stop  offset="1" style="stop-color:#FFCDAE"/>
		</linearGradient>
		<polygon class="st13" points="593.2,506.2 575.1,529.7 565,521.2 521,484 520.6,483.6 520.6,440.8 521.9,442.1 541,459.3 		"/>
		<path class="st14" d="M668.7,540.5c0,0-0.4,2.5-0.8,6.5c-12.7,14.2-31.6,34-39.2,35.2c-3.4,0.5-10-3.8-17.9-10.3
			c-19.8-16.5-47.2-47.3-47.3-49.9c-0.2-3.6,16.4-27,19.6-28.2c3.2-1.2,37.6,29.5,40,31.8c2.5,2.3,36.5-56.6,36.5-56.6
			c4.6,5.4,7.3,13.2,8.9,21.8C672.6,513.3,668.7,540.5,668.7,540.5z"/>
		<path class="st14" d="M826.9,629.1c-0.3,1-9.4,12.4-15.8,20.3c-3.5,4.3-6.2,7.6-6.2,7.6s-1-1.4-2.6-3.9c-0.7-1.1-1.6-2.5-2.6-4
			c-0.3-0.5-0.6-1-1-1.5c-0.2-0.4-0.5-0.7-0.7-1.1c-1-1.5-2-3.2-3.1-4.9c-0.8-1.2-1.6-2.5-2.4-3.9c-1.8-3-3.7-6.1-5.6-9.4
			c-2-3.4-4-6.9-5.8-10.4c-4.8-8.9-8.7-17.5-10.1-23.7c-3.8-17,2.5-93,4.1-112.1c0.2-2.8,0.4-4.3,0.4-4.3s1.2,1.2,3.3,4.6
			c0.7,1.1,1.4,2.4,2.2,3.9c2.6,5,6,12.6,9.7,24c3.5,10.5,7.3,24.3,11.2,42.3c11.3,52.6,21.5,69.8,24.3,74.8
			C826.7,628.3,826.9,628.8,826.9,629.1z"/>
		<path class="st15" d="M796.2,684.4c-0.2,2-0.6,3.8-1.2,5.5c-0.2,0.6-0.4,1.2-0.7,1.8c-0.8,1.9-2.3,3.5-4.3,4.9
			c-2.6,1.8-6.1,3.3-10.3,4.4c-3,0.8-6.4,1.5-10.1,2c-4.9,0.7-10.3,1-16,1.2c-30.7,0.7-69.9-5.9-87.2-15.5c-2.5-1.4-4.6-2.9-6-4.4
			c-3.3-3.4-5.3-7.6-6.3-12.4c-1-4.7-1.1-10.1-0.6-16c0.9-11.6,4.1-25.2,7-40c1-5.2,2-10.4,2.9-15.9c1.4-8.7,2.4-17.7,2.6-26.8
			c0.2-10.1,1.2-20,1.9-26.2c0-0.3,0.1-0.5,0.1-0.8c0.4-3.6,0.8-5.7,0.8-5.7s7.5-51.7-9.1-71.4c15.4-6.9,24.6-11.2,31.2-14.2
			c10.3-4.6,14.1-5.7,25.3-7.8c0,0,20.6,4.4,39.7,15.4c7.5,4.3,14.9,9.6,20.6,16.1c1,1.2,2,2.4,3,3.6c0,0,0,0,0,0
			c1.3,1.7,2.1,4.8,2.7,8.8c1.1,8,1,20,0.3,33.3c-0.2,4.2-0.5,8.5-0.8,12.9c-1.7,24.6-4.3,50.4-3.9,62.4c0.2,5.2,1.5,11.4,3.4,18.2
			c4.3,15.6,11.5,34.1,14.3,49.9C796.4,673.8,796.8,679.4,796.2,684.4z"/>
		<linearGradient id="SVGID_2_" gradientUnits="userSpaceOnUse" x1="755.664" y1="351.2504" x2="684.2836" y2="486.8733">
			<stop  offset="0" style="stop-color:#FCAAAA"/>
			<stop  offset="1" style="stop-color:#FFCDAE"/>
		</linearGradient>
		<path class="st16" d="M742.7,438.1c0.3,12.6,3.5,38-17.8,37c-0.5,0-0.9,0-1.3-0.1c-20.6-1.8-12.7-21.8-14.7-27.9
			c-1-3-3.6-3-6.8-3.2c-3.4-0.2-7.4-0.5-10.7-4.9c-3.7-4.8-5.8-18-6.9-28.4c-0.4-3.3-0.6-6.3-0.8-8.7c23.2-0.8,53.2-12.8,53.2-12.8
			s-0.4,1.7-0.8,4.3c-0.4,3-0.9,7.3-0.7,11.7c0.3,8.3,4.2-10.4,10.7-6.8c6.5,3.6-0.9,17.9-5.4,22.8
			C737.7,424.5,739.9,432.9,742.7,438.1z"/>
		<path class="st17" d="M764.3,424c-8.3,10.7-16.4,18.4-17.7,18.5c-1,0.1-2.5-1.7-3.9-4.4c-2.7-5.2-5-13.6-2.1-16.9
			c4.5-4.9,11.9-19.2,5.4-22.8c-6.6-3.6-10.4,15.2-10.7,6.8c-0.3-8.3,1.5-16.1,1.5-16.1s-30,12-53.2,12.8c-3.1,0.1-6.2,0-9-0.3
			c-1.2-5.1-1.6-9.8-1.6-13.9c0-10.3,2.9-16.9,3.3-17.8c-0.5,0.7-3.1,4.9-7.7,17.8c3.9-36.5,16.7-45,49.1-48
			c32.4-19.6,39.9,22,39.9,22s18.7-8.3,25,15.7C786.1,391.2,775.1,410.1,764.3,424z"/>
		<path class="st14" d="M831.1,646.9c-2.5,4.3-8.3,9.4-13.5,13.3c-2.2,1.6-4.2,3-6,4c-2.2,1.3-3.9,2-4.6,1.8
			c-2.8-0.8-6.1-5.4-6-10.1c0-0.6,0.5-1.6,1.2-2.8c1.3-2.1,3.4-5,5.9-8.1c6.8-8.4,16-18.2,16-18.2c0.7-0.2,1.4,0,2.1,0.7
			c2.6,2.2,5.3,8.9,6.3,15C832.6,643.7,832.1,645.2,831.1,646.9z"/>
		<path class="st14" d="M592.3,493.6c0,0-17.5,45-24.1,41.7c-6.5-3.3-13.4-9.8-10.7-17.9c2.7-8,18.1-31.5,27.1-28.6
			C593.5,491.8,594.2,488.9,592.3,493.6z"/>
		<path class="st6" d="M742.8,456.1c0,0-1.4,17.5-13.9,18.9c8.2,10.8,12.8,9,15.2,7.3C746.4,480.7,749.4,461.3,742.8,456.1z"/>
		<path class="st18" d="M818.6,1098.3c-7.1,10.5-39.7,11.7-45.2,4c-5.6-7.8-11.1-250.8-35.5-336.2c-14.9,25.6-6.8,326.7-13,333.7
			c-2.7,3.1-51.5,13.7-54.4-3.6c-14.4-86-9.6-277-5.8-368.7c0.7-16.6,1.3-30,1.8-38.8c26.3,14.7,103.3,22.1,123.7,8
			c0.4,1.1,0.8,2.2,1.2,3.3C831.3,813.3,825.3,1088.5,818.6,1098.3z"/>
		<path class="st14" d="M725.5,1145.2h-86c0,0,0.9-25.5,16.4-26.7c2.8-0.2,5.2,0.1,7.3,0.9c9.3,3.3,11.5,14.3,11.5,14.3h48.5
			C723.1,1133.7,725.8,1139.9,725.5,1145.2z"/>
		<path class="st18" d="M721.3,1133.7h-46.7c0,0-2.2-11-11.5-14.3c4.7-3.3,12.7-9.3,14.3-12.8c16.2-3.5,37.6-1.8,39.1,0
			C718,1108.4,721.3,1133.7,721.3,1133.7z"/>
		<path class="st19" d="M669.5,1114.6c0,0,9.9,2,13,1.6c3.1-0.4,14.4-26,12.9-29s-18.7-1.8-20.2,0
			C673.7,1089,673,1108.5,669.5,1114.6z"/>
		<path class="st14" d="M771.1,1145.5l86-0.4c0,0-1-25.5-16.5-26.7c-2.8-0.2-5.2,0.2-7.3,0.9c-9.3,3.3-11.4,14.3-11.4,14.3
			l-48.5,0.2C773.4,1133.9,770.8,1140.1,771.1,1145.5z"/>
		<path class="st18" d="M775.2,1133.8l46.7-0.2c0,0,2.1-11,11.4-14.3c-4.7-3.3-12.7-9.2-14.3-12.7c-16.3-3.5-37.7-1.6-39.1,0.2
			C778.3,1108.6,775.2,1133.8,775.2,1133.8z"/>
		<path class="st19" d="M826.9,1114.6c0,0-9.9,2.1-13,1.7c-3.1-0.4-14.5-25.9-13.1-28.9c1.5-3,18.7-1.9,20.2-0.1
			C822.6,1089,823.3,1108.5,826.9,1114.6z"/>
		<linearGradient id="SVGID_3_" gradientUnits="userSpaceOnUse" x1="798.1014" y1="629.5598" x2="939.6617" y2="842.4954">
			<stop  offset="0" style="stop-color:#FCAAAA"/>
			<stop  offset="1" style="stop-color:#FFCDAE"/>
		</linearGradient>
		<path class="st20" d="M869.8,734c-0.1,11.3-10.2,12.2-17.3,8.3c-6.1-3.3-14.4-30.7-20.7-45.3c-1.1-2.5-2.1-4.6-3.1-6.2
			c-4.2-6.9-12-19-17-26.7c1.7-1,3.8-2.4,6-4c5.3-3.9,11-9,13.5-13.3c4.7,10.8,14.8,33.3,17.5,35.3c3.6,2.7,20.2,21.1,21.1,26.5
			c0.9,5.4-5.6,1.5-8.3,1.2C858.7,709.6,869.9,722.7,869.8,734z"/>
		<path class="st21" d="M693,704.1c0,0,4.8,17.9-17.8,31.6"/>
		<path class="st21" d="M771.8,710.2c0,0,1.5,20.8,26.5,25.6"/>
		<path class="st21" d="M682.3,753.3c0,0-21.2,210.5,0,328"/>
		<path class="st21" d="M749.5,766.1c0,0,38.1,212.7,30.9,332.3"/>
		<path class="st9" d="M668.7,540.5c0,0-0.4,2.5-0.8,6.5c-12.7,14.2-31.6,34-39.2,35.2c-3.4,0.5-10-3.8-17.9-10.3
			c4.7,0.2,10.8,0.1,16.7-0.4c10.8-1,37.9-57.6,41-80.6C672.6,513.3,668.7,540.5,668.7,540.5z"/>
		<path class="st6" d="M709.1,448.6c0,0-1.8,22.7,15.8,26.6c-0.1,8.2-12.6,14.2-15.8,10.5C705.8,481.9,696.3,457.4,709.1,448.6z"/>
	</g>
	<g>
		<linearGradient id="SVGID_4_" gradientUnits="userSpaceOnUse" x1="538.2146" y1="563.3033" x2="642.8981" y2="493.7125">
			<stop  offset="0" style="stop-color:#FCAAAA"/>
			<stop  offset="1" style="stop-color:#FFCDAE"/>
		</linearGradient>
		<path class="st22" d="M680.9,470.9c-8.9,2.1-36.1,6.3-40.4,10.7c-0.5,0.5-1.4,2.2-2.7,5c-11.4,23.5-52.1,120.8-77,117.6
			c-0.5,0-0.9-0.1-1.4-0.2c-13.9-3-27.8-23.5-37.9-42.9c-4.9-9.4-9-18.5-11.8-25.2c14.8-3.2,32.9-15.8,39.3-22
			c0.6,1.4,1.1,2.8,1.6,4.2c4.2,11.2,8,23.9,9.5,29.1c0.4,1.5,0.7,2.4,0.7,2.4s1-1,2.6-2.8c9.2-9.9,39.8-43.9,44.2-58.7
			c5.2-17.4,12.7-43.6,17.5-40.4c4.8,3.2,0.4,19,7.5,17.8C669.4,457,687.7,469.3,680.9,470.9z"/>
		<path class="st23" d="M501.9,438.3c0,1.2,0,2.2,0,3c0,1-1.4,1.8-3.8,2.4c-18.3,5-97,1.2-109.7-15.5c-1.3-1.7-1.9-3.6-1.7-5.6
			c0,0,16.7-39.5,67.2-34.2c41.1,4.4,47.2,30.6,47.9,45.2C501.9,435.4,501.9,437,501.9,438.3z"/>
		<path class="st24" d="M551.3,510.5c0,0.6-0.8,1.7-2.3,3.2c-4.6,4.5-15.2,12.2-26.3,17.4c-2.8,1.3-5.6,2.5-8.3,3.3
			c-1.3,0.4-2.6,0.8-3.9,1.1c-0.3,0.1-0.5,0.1-0.8,0.2c-1,0.2-2.1,0.4-3.1,0.6c0,0-0.1,0-0.1,0c-0.7,0.1-1.4,0.4-2.1,0.9
			c-1,0.7-1.8,1.8-2.6,3.3c-2.4,4.7-3.8,13-4.5,23.3c-0.1,1.1-0.2,2.2-0.2,3.3c0,0.9-0.1,1.8-0.1,2.7c-0.1,1.1-0.1,2.2-0.1,3.3
			c-0.3,7.3-0.3,15.2-0.1,23.3c0,1.1,0.1,2.2,0.1,3.3c0,0.9,0,1.8,0.1,2.7c0,1.1,0.1,2.2,0.1,3.3c0.3,7.9,0.7,15.8,1.2,23.3
			c0.1,1.1,0.2,2.2,0.2,3.3c0.1,0.9,0.1,1.8,0.2,2.7c0.1,1.1,0.1,2.3,0.2,3.3c0.7,9.2,1.4,17.3,2,23.3c0,0.5,0.1,1,0.1,1.4
			c0.1,0.7,0.1,1.3,0.2,1.9c0.1,1,0.2,1.9,0.3,2.7c0.2,1.4,0.3,2.5,0.4,3.3c0.1,0.9,0.2,1.4,0.3,1.6c0.3,1-12.2,4.1-29.4,6.1
			c-14.7,1.8-32.9,2.7-49.4,0.9c-6.2-0.7-12.1-1.8-17.6-3.4c-4.7-1.3-8.9-3.1-12.7-5.2c-0.3-0.1-0.5-0.3-0.8-0.4
			c-1.4-0.8-2.7-1.8-3.9-2.9c-0.9-0.8-1.8-1.7-2.6-2.7c-0.8-1-1.6-2.2-2.3-3.3c-0.1-0.2-0.3-0.4-0.4-0.7c-3.5-6.1-5.6-13.9-6.6-22.6
			c-0.1-1.1-0.3-2.2-0.4-3.3c-0.1-0.9-0.2-1.8-0.2-2.7c-0.1-1.1-0.1-2.2-0.2-3.3c-0.3-7.6,0-15.5,0.6-23.3c0.1-1.1,0.2-2.2,0.3-3.3
			c0.1-0.9,0.2-1.8,0.3-2.7c0.1-1.1,0.3-2.2,0.4-3.3c1-8.4,2.2-16.4,3.5-23.3c0.2-1.2,0.4-2.3,0.6-3.3c0.2-0.9,0.4-1.8,0.6-2.7
			c0.2-1.2,0.5-2.3,0.7-3.3c1.8-8.6,3.3-14,3.3-14l-0.7-9.3l-0.3-3.3l-0.2-2.7l-0.3-3.3l-0.1-1.4l-0.8-10.1c0,0-2,5-4.6,11.5
			c0,0.1-0.1,0.2-0.1,0.3c-0.4,1-0.8,2-1.3,3c-0.4,0.9-0.8,1.8-1.2,2.7c-0.4,0.9-0.8,1.7-1.1,2.6c-0.1,0.3-0.2,0.5-0.3,0.7
			c-3.7,8.5-7.6,16.6-9.4,17.7c-0.4,0.2-1.1,0.3-1.9,0.2c-5.7-0.8-20.8-8.8-30.1-17.8c-1.1-1.1-2.2-2.2-3.1-3.3
			c-0.5-0.6-1-1.2-1.4-1.7c-0.2-0.3-0.5-0.7-0.7-1c-0.8-1.1-1.4-2.2-1.8-3.3c-0.4-0.9-0.7-1.8-0.8-2.7c0,0,3.4-8.6,8.5-20.5
			c0.5-1.1,1-2.2,1.4-3.3c0.4-0.9,0.8-1.8,1.2-2.7c0.5-1.1,1-2.2,1.5-3.3c1.6-3.5,3.2-7.2,4.9-10.8c1.9-4.2,3.9-8.4,6-12.4
			c0.6-1.1,1.1-2.2,1.7-3.3c0.5-0.9,0.9-1.8,1.4-2.7c0.6-1.1,1.2-2.3,1.8-3.3c0.9-1.7,1.8-3.3,2.7-4.9c3.9-6.8,7.7-12.6,11-16.3
			c0.3-0.4,0.6-0.7,1-1.1c0.3-0.3,0.6-0.7,1-1c1.2-1.1,2.4-2.2,3.8-3.3c1.1-0.9,2.3-1.8,3.6-2.7c1.6-1.2,3.3-2.3,5.1-3.3
			c6.3-3.9,13.6-7.4,21.1-10.3c2.5-1,5.1-1.9,7.6-2.7c13.7-4.5,27.5-7.1,37.4-6.7c9,0.3,22.9,5,36.7,10.9c4.1,1.8,8.2,3.6,12.1,5.5
			c2.3,1.1,4.5,2.2,6.7,3.3c2.2,1.1,4.4,2.2,6.4,3.3c1.7,0.9,3.4,1.9,4.9,2.7c0.7,0.4,1.3,0.8,2,1.1c1.3,0.8,2.5,1.5,3.7,2.2
			c3.8,2.4,6.3,4.2,7.2,5.4c0.1,0.1,0.3,0.3,0.4,0.6c1.6,2.5,4.5,9.2,7.6,17.4c0.4,1.1,0.9,2.2,1.3,3.3c0.3,0.7,0.5,1.3,0.8,2
			c0.1,0.2,0.2,0.5,0.3,0.7c0.4,1.1,0.8,2.2,1.2,3.3c3.1,8.2,6.1,16.7,8.3,23.3c0.4,1.2,0.8,2.3,1.1,3.3c0.3,1,0.6,1.9,0.9,2.7
			c0.4,1.3,0.8,2.4,1,3.3C551.1,509.2,551.3,510.2,551.3,510.5z"/>
		<linearGradient id="SVGID_5_" gradientUnits="userSpaceOnUse" x1="320.3556" y1="653.9063" x2="252.9451" y2="583.3234">
			<stop  offset="0" style="stop-color:#FCAAAA"/>
			<stop  offset="1" style="stop-color:#FFCDAE"/>
		</linearGradient>
		<path class="st25" d="M363.5,558.3c-2.2,5-6.2,14-10.8,23.9c-9.5,20.6-21.4,45.3-24.4,46.6c-5.2,2.3-79.3-3.4-88.8-1.1
			c-9.5,2.3-33.7,34.1-45.6,32.7c-11.9-1.3-0.8-30.5,17.2-42.6c-9.5-0.1-12.2-3.3-12.6-8.1c2.8-3.1,17.5-0.7,28.6-3.1
			c11.1-2.4,73.9-14.3,80.7-15l16.8-44.7l4.4-11.6C337,546.4,356.8,557.3,363.5,558.3z"/>
		<path class="st26" d="M532.9,1086c-3,2.4-6.4,4-10.3,4.2c-10.4,0.6-21.1,0.3-29-3.8c-2.4-1.2-4.6-2.8-6.4-4.9
			c-0.9-1-2.1-5.8-3.6-13.7c-5.3-27.9-13.8-93.8-21.4-157c-8.8-72.7-16.6-141.9-17.1-146.3l0-0.2c0,0-40.3,190.3-62.2,306.1
			c-0.7,3.8-1.4,7.5-2.1,11.1c-2,3.4-4.8,6-8,7.9c-10.7,6.3-26.5,4.7-35.6-0.6c-3.4-2-5.9-4.5-6.9-7.3c-0.4-1.1-0.5-4.9-0.3-11
			c1.5-52.5,21.6-273.6,29.9-364c0.7-7.4,1.3-13.9,1.8-19.3c13.8,14.8,36.9,10.8,41.6,3.9c0.7-1,1.5-6.3,2.4-14.8
			c18.8,5.4,47.3,2.4,67.5,0c0.1,0.9,0.2,1.7,0.2,2.5c0,0.1,0,0.2,0,0.3c0.4,3.6,0.8,6,1.4,7.3c5.9,13.3,22.7,12.7,37.5,5.4
			c7,81.1,27.7,321.3,31.3,363.7c0.3,3.4,0.5,5.6,0.5,6.2C544.7,1069.1,540.4,1080.1,532.9,1086z"/>
		<path class="st27" d="M382,1145.2h-53.8c0,0,0.4-4,1.1-9c1-6.7,2.6-15.3,4.8-18.9c0.5-0.8,1-1.3,1.5-1.6c3.3-1.4,3.5-8.1,7.1-12.4
			c1.7-2,4.2-3.5,8-3.7c2.7-0.1,4.7,0.5,6.4,1.5c5.8,3.8,6.1,13.2,8.2,14.8c0.8,0.6,2.1,0.9,3.7,1.8c3,1.6,7,5,10.3,15.9
			C380.3,1136.9,381.2,1140.7,382,1145.2z"/>
		<path class="st27" d="M602,1145.2H492.9c0,0,0.5-9.7,1.5-18.8c0.7-5.8,1.7-11.3,2.9-13.9c0.1-0.3,0.3-0.5,0.4-0.7
			c4.1-5.2,20.3,7.2,24.8,6.6c4.8-0.6,5.7-12.8,10.4-15.5c0.1-0.1,0.3-0.1,0.4-0.2c1.2-0.3,3,0.6,5.1,2.3c6.8,5.2,17.8,17.5,29.9,19
			c3.2,0.4,6.4,0.7,9.5,1.1c10.5,1.3,19.6,3.5,22.9,13C601.5,1140.3,601.9,1142.6,602,1145.2z"/>
		<linearGradient id="SVGID_6_" gradientUnits="userSpaceOnUse" x1="517.643" y1="919.7508" x2="510.5057" y2="1224.281">
			<stop  offset="0" style="stop-color:#FCAAAA"/>
			<stop  offset="1" style="stop-color:#FFCDAE"/>
		</linearGradient>
		<path class="st28" d="M533.5,1102.9c-0.1,0-0.3,0.1-0.4,0.2c-4.8,2.7-5.6,14.9-10.4,15.5c-4.6,0.6-20.8-11.8-24.8-6.6
			c-0.8-5-1.7-10.9-2.6-16.1c-0.6-3.6-1.2-6.9-1.6-9.4c7.9,4.1,18.6,4.5,29,3.8c3.9-0.2,7.3-1.8,10.3-4.2l0.3,10.8L533.5,1102.9z"/>
		<linearGradient id="SVGID_7_" gradientUnits="userSpaceOnUse" x1="357.8065" y1="916.0043" x2="350.6692" y2="1220.5369">
			<stop  offset="0" style="stop-color:#FCAAAA"/>
			<stop  offset="1" style="stop-color:#FFCDAE"/>
		</linearGradient>
		<path class="st29" d="M372.8,1089.4l-0.4,2.9l-3.4,25.6c-1.6-0.9-2.9-1.2-3.7-1.8c-2.1-1.6-2.4-11.1-8.2-14.8
			c-1.6-1.1-3.7-1.7-6.4-1.5c-3.9,0.2-6.3,1.7-8,3.7c-3.7,4.3-3.9,11-7.1,12.4c-0.5,0.2-1,0.8-1.5,1.6l1.6-14.5l1.5-14.1
			C346.3,1094.2,362.1,1095.7,372.8,1089.4z"/>
		<path class="st21" d="M407.3,697.3c0,0-13.1,26.5-36.9,23"/>
		<g class="st9">
			<g>
				<line class="st30" x1="386.7" y1="727.4" x2="386.5" y2="728.5"/>
				<line class="st31" x1="386.3" y1="730.7" x2="349.4" y2="1076.2"/>
				<line class="st30" x1="349.2" y1="1077.3" x2="349.1" y2="1078.3"/>
			</g>
		</g>
		<line class="st32" x1="451" y1="766.1" x2="504.5" y2="1081.3"/>
		<path class="st9" d="M462.2,910.8c-8.8-72.7-16.6-141.9-17.1-146.3l0-0.2c0,0,11.5,0.6,32.6-11"/>
		<path class="st9" d="M382.9,1070.4c-0.7,3.8-1.4,7.5-2.1,11.1c-2,3.4-4.8,6-8,7.9c-10.7,6.3-26.5,4.7-35.6-0.6
			c-3.4-2-5.9-4.5-6.9-7.3c-0.4-1.1-0.5-4.9-0.3-11C342.8,1075.2,362.6,1079.3,382.9,1070.4z"/>
		<path class="st9" d="M532.9,1086c-3,2.4-6.4,4-10.3,4.2c-10.4,0.6-21.1,0.3-29-3.8c-2.4-1.2-4.6-2.8-6.4-4.9
			c-0.9-1-2.1-5.8-3.6-13.7c13.3,6.1,41,14.3,60-12.3c0.3,3.4,0.5,5.6,0.5,6.2C544.7,1069.1,540.4,1080.1,532.9,1086z"/>
		<path class="st9" d="M533.3,1096.9c-14.3,2.9-29.1,0.8-38.1-1.1c-0.6-3.6-1.2-6.9-1.6-9.4c7.9,4.1,18.6,4.5,29,3.8
			c3.9-0.2,7.3-1.8,10.3-4.2L533.3,1096.9z"/>
		<path class="st33" d="M577.9,1125.3c-6.8,6.5-37.3-4.3-40.3-7.4c-2.5-2.5-0.5-8.7,1-12.8c6.8,5.2,17.8,17.5,29.9,19
			C571.6,1124.6,574.9,1124.9,577.9,1125.3z"/>
		<path class="st9" d="M602,1145.2H492.9c0,0,0.5-9.7,1.5-18.8c3.4,4.1,8.8,9.6,15,11.5c8.4,2.6,69.3,1,91.4,0.3
			C601.5,1140.3,601.9,1142.6,602,1145.2z"/>
		<path class="st33" d="M346.3,1105.1c0,0-6.1,8.1-6.1,12.8c0,4.7,4.6,11,9.9,12.2c5.4,1.2,9.5-5.6,9.9-10.1
			C360.3,1115.4,360.2,1103.4,346.3,1105.1z"/>
		<path class="st27" d="M382,1145.2h-53.8c0,0,0.4-4,1.1-9c11.1,0.9,39.4,2.6,50-2.5C380.3,1136.9,381.2,1140.7,382,1145.2z"/>
		<path class="st9" d="M372.8,1089.4l-0.4,2.9c-4.8,4.6-10.1,7.3-15.3,9c-1.6-1.1-3.7-1.7-6.4-1.5c-3.9,0.2-6.3,1.7-8,3.7
			c-2.8,0-5.3-0.2-7.1-0.5l1.5-14.1C346.3,1094.2,362.1,1095.7,372.8,1089.4z"/>
		<path class="st23" d="M411,587.3c-1,24.5-2.1,47.4-3.4,65.4c-0.6,9.3-1.3,17.3-1.9,23.6c-0.8,8.5-1.6,13.8-2.4,14.8
			c-4.8,6.9-27.8,10.9-41.6-3.9c-1.8-1.9-3.4-4-4.8-6.5c-12.2-21.8,25.2-118.2,21.8-149.3c-0.1-0.7-0.2-1.4-0.3-2
			c-4-21.4-16-53.5-21.8-68.5c-2-5.1-3.3-8.2-3.3-8.2c-2.4-19,42.8-46.4,55.9-39.3c0.6,1.6,1,3.8,1.5,6.8c0.4,2.6,0.7,5.7,1,9.2
			C414.3,461.1,413.3,528.7,411,587.3z"/>
		<path class="st23" d="M531.4,440.1c0,0-1,3.1-2.6,8.3c-5.3,17.5-16.9,59.1-17.7,87v0.2c0,1.2-0.1,2.4,0,3.6c0,0.7,0,1.4,0,2.1
			c1.2,35.1,26.1,133.2,10.1,145.1c-2.6,1.9-5.4,3.6-8.2,5.1c-0.2,0.1-0.5,0.2-0.7,0.3c-14.7,7.3-31.6,7.8-37.5-5.4
			c-0.6-1.3-1-3.9-1.4-7.6v-0.1c-0.1-0.7-0.1-1.6-0.2-2.4c-0.4-5-0.6-11.6-0.8-19.4c-0.3-18.1,0-42.7,0.8-69.1
			c0.2-6.5,0.4-13.1,0.7-19.7c0.5-13.4,1.1-27.1,1.8-40.3c2.1-40.4,4.8-77.2,7.7-94.4c0.2-1.1,0.4-2.1,0.5-3.1c0-0.1,0-0.1,0-0.2
			c0.4-2.1,0.8-3.8,1.3-5c0.1-0.2,0.1-0.4,0.2-0.6c0-0.1,0.1-0.2,0.1-0.3c0.3-0.6,0.6-1.2,1-1.7
			C496.5,407.6,532.7,435.9,531.4,440.1z"/>
		<path class="st9" d="M411,587.3l-1.6,4.5c0,0-14.3-146.9-17.8-157.6c-3.6-10.7,17.8-20.9,17.8-20.9
			C414.8,428.6,413.8,514.8,411,587.3z"/>
		<path class="st9" d="M473.3,587.8c0.2-6.5,0.4-13.1,0.7-19.7c2.1-57.1,6-117.3,10-137.8c0-0.1,0-0.1,0-0.2c0.5-2.2,0.9-3.9,1.3-5
			c0.1-0.3,0.2-0.6,0.3-0.9c0.3-0.6,0.6-1.2,1-1.7c5.1,1.4,11.8,5.2,15.4,15.8C506.1,450.7,491.3,535.6,473.3,587.8z"/>
		<path class="st21" d="M393.9,608.2c0,0-1.8,13.6-20.8,20.9"/>
		<path class="st21" d="M484.4,608.2c0,0,1.8,13.6,20.8,20.9"/>
		<path class="st9" d="M563.4,546.6c-0.8,8-2.3,20.9-3.3,18.9c-1.5-3,0-18.4,0-18.4c0.4,1.5,0.7,2.4,0.7,2.4
			S561.8,548.4,563.4,546.6z"/>
		<path class="st34" d="M523.1,327.5c-3.9,7.2-8.9,15.2-16.4,20.5c-2.8,2-5.8,3.5-9.3,4.6c-5.4,1.6-11.7,1.9-19.1,0.1
			c-5.6-1.3-7.9-3.6-7.9-3.6s0.9,6.6,14.9,11.7c-8.9-1.6-19-0.4-23.2-11.9c0,0-1.5,1.7-3.3,4.8c-2.5,4.2-5.5,11.1-6.2,19.8
			c-11.1-17.3-11.3-22.2-20-19.8c-8.7,2.4-3.8,15.7,1.8,18.6c4.2,2.3,0.2,12.9-2.6,18c-0.9,1.6-1.2,3-1.2,3s-1.4-19.2-16.6-27.8
			c-4.1-2.3-7.8-5.9-10.7-10.4c-8-12.2-10.4-30.4,0.2-42.2c14.5-16.1,29.5-6.7,29.5-6.7s-1.4-33.1,23.8-42.4
			c-12.2,12.7-13.8,25.5-13.9,26.5c0.2-1.2,4.2-20.5,29.5-23.3c26.2-3,26.6,24.2,26.6,24.2s0.6-8.1,15.7-6.7
			c6.3,0.6,10.1,5.7,11.9,12.5C529,306.5,527.5,319.3,523.1,327.5z"/>
		<linearGradient id="SVGID_8_" gradientUnits="userSpaceOnUse" x1="429.4035" y1="372.2072" x2="511.0939" y2="428.5181">
			<stop  offset="0" style="stop-color:#FCAAAA"/>
			<stop  offset="1" style="stop-color:#FFCDAE"/>
		</linearGradient>
		<path class="st35" d="M497.5,352.6c0,3.6-0.2,8.8-0.9,14.7c-1.8,15.9-7.2,36.5-23,42.2c-3.5,1.2-6.1-0.4-8.2-1.6c0,0,0,0-0.1-0.1
			c-1.3-0.7-2.3-1.1-3.2-0.6c-1.5,0.8,0.1,6,0.9,12c0.6,4.4,0.8,9.3-0.9,13.1c-4.1,8.9-8.3,12.5-19.6,12.1
			c-11.3-0.4-17.4-10.3-14.1-22c1.7-5.8,2.3-13.9,2.4-21.2c0-3.9-0.1-7.6-0.4-10.6c2.8-5.1,8.2-16.1,4-18.3
			c-5.5-3-10.5-16.3-1.8-18.6c3.8-1.1,6-0.7,8.2,1.5c2.8,2.8,5.6,8.6,11.8,18.3c0.7-8.7,3.8-15.6,6.2-19.8c0.9-1.6,1.7-2.8,2.3-3.6
			c0.1-0.2,0.3-0.4,0.4-0.5c0.4-0.5,0.6-0.7,0.6-0.7c4.2,11.5,14.3,10.3,23.2,11.9c-14-5.1-14.9-11.7-14.9-11.7s2.4,2.3,7.9,3.6
			C485.8,354.4,492.1,354.2,497.5,352.6z"/>
	</g>
	<g>
		<path class="st36" d="M963.8,373.8c0,0-41.4-62.4,11-89.4c52.3-27,88.9,18.9,79.6,57.1c-3.5,14.3,20.9,11.8,19.8,35.6
			c-1.1,23.9-2.2,37,25.4,55c27.5,18,41,50.5,33.9,89c-7.1,38.5,46.8,74.2,32.5,121.7c-14.3,47.6-100,64.2-131.7,26.5
			c-31.7-37.6-55.8-178.6-55.8-178.6l30.7-62.9l-12.9-48.2L963.8,373.8z"/>
		<path class="st37" d="M1115.9,1063.3c0,0-0.4,0.4-1.1,1c-4,3.6-18.6,14.9-31.5,6.1c-0.5-0.4-1.1-1.1-1.8-2.1c0,0,0,0,0,0
			c-3-4.8-7.1-16.7-11.8-33.3c-23.7-82.9-63.9-281.6-63.9-281.6l-13.5,148.2l-13.4,147.3l-3.3,35.7c0,0-25.4,5.7-43.2-6.2
			c-0.4-5.5-0.6-12.2-0.8-20c-2.1-105.2,12.3-398.4,12.4-401.4c3.2,8.2,10.2,15.5,23.3,20c0,0,0,0,0,0c0.5,0.1,1,0.3,1.5,0.5
			c4.5,1.4,9.6,2.5,15.5,3.2c37.5,4.4,69-3.8,81.5-17.3c0.6-0.7,1.2-1.4,1.8-2c5.4,12.5,10,32,12.9,54.5c2.8,21.6,4,46.1,2.6,69.8
			c-2.7,45.5,20.3,198.9,29.2,256C1114.6,1055.2,1115.9,1063.3,1115.9,1063.3z"/>
		<path class="st38" d="M1085.6,440.3c-1.2,2.2-2.4,4.6-3.4,7.1c-0.4,1-0.9,2.1-1.3,3.1c-2.1,5.5-3.8,11.4-5.2,17.6
			c-0.8,3.3-1.4,6.6-2,10c-0.3,1.4-0.5,2.9-0.7,4.3c-1.5,9.4-2.5,18.7-3.1,26.9c-0.1,1.4-0.2,2.8-0.3,4.1c-0.9,14-0.7,23.9-0.7,23.9
			s-0.1,0.6-0.3,1.7c-0.2,1-0.4,2.5-0.7,4.3c-0.9,6-2.2,15.8-3.1,26.9c-0.1,1.3-0.2,2.7-0.3,4c-0.5,8.2-0.7,16.9-0.2,25.2
			c0.1,1.3,0.2,2.5,0.3,3.8c0.5,5.5,1.3,10.7,2.5,15.3c0.7,2.6,1.3,4.9,1.9,7.1c0.3,1.2,0.6,2.3,0.9,3.3c3.3,11.8,5.1,17.6,3.7,22.8
			c-0.5,1.8-1.4,3.6-2.7,5.5c-0.9,1.2-1.9,2.6-3.2,4c-0.6,0.6-1.2,1.3-1.8,2c-12.5,13.4-44,21.7-81.5,17.3
			c-5.9-0.7-11.1-1.8-15.5-3.2c-14.1-4.4-21.5-12-24.9-20.5v0c-0.3-0.8-0.6-1.7-0.8-2.5c-0.4-1.1-0.6-2.3-0.8-3.4
			c-0.8-4.2-0.7-8.4-0.2-12.6c0.5-3.5,1.6-8.3,3-14.2c0.4-1.4,0.7-2.9,1.1-4.5c1.6-6.7,3.5-14.4,5.2-22.5c0.3-1.1,0.5-2.3,0.7-3.5
			c1.5-7.5,2.9-15.3,3.7-22.8c0.1-1.2,0.3-2.5,0.4-3.7c0.3-3.7,0.5-7.4,0.6-11c0-2.6,0-5.2-0.2-7.7c-0.2-2.3-0.5-4.5-0.8-6.7
			c-0.3-1.6-0.6-3.1-1-4.5c0-0.1-0.1-0.3-0.1-0.4c-5.3-4.9-14.9-8.8-17.7-23.7c-0.2-0.9-0.3-1.9-0.5-2.9c0-0.2-0.1-0.5-0.1-0.7
			c-0.5-4.4-0.4-9.8,0.4-16.2c0.5-3.5,0.8-6.8,1.2-9.9c0.2-1.4,0.3-2.8,0.4-4.1c1.1-10.9,1.5-19.5,2.3-26.5c0.2-1.5,0.4-2.9,0.6-4.2
			c0.9-5.6,2.1-10.2,4.5-14.2c0.4-0.7,0.9-1.3,1.4-2c0.1-0.1,0.1-0.1,0.1-0.2c0.1-0.1,0.1-0.2,0.2-0.3c0.1-0.1,0.1-0.1,0.1-0.1
			c6.4-7.5,21.1-14.1,37.8-19.2c6.1-1.8,12.4-3.4,18.7-4.8c12.6-2.8,23.9-2.2,33.8,0.2C1063.3,414.7,1079.6,433.1,1085.6,440.3z"/>
		<path class="st38" d="M1105.6,525.7c-5.2,13.5-26.9,14.8-36.9,13.1c-2.3-0.4-3.9-0.9-4.7-1.4c-1.1-0.8-2.1-6.1-2.6-14.1
			c-1.1-16.5-0.2-43.9,6-64.4c0.6-1.9,1.2-3.8,1.9-5.6c0.1-0.4,0.2-0.6,0.2-0.6c3-7.6,6.8-13.8,11.8-17.3c0,0,23.1,13.9,24.3,81.1
			C1105.6,519.4,1105.7,522.5,1105.6,525.7z"/>
		<path class="st38" d="M956.6,548.7c-0.9,0.6-2.8,1-5.3,1.1c-3.1,0.1-7.1-0.2-11.5-1c-9.4-1.7-20.5-5.8-27.6-12.8
			c-1.6-1.6-3-3.3-4.1-5.2c0.9-3.4,1.8-6.7,2.7-9.9c6.3-22.2,12.2-39.2,17.5-52.1c9.8-24,17-33.7,18.9-35.9c-0.5,0.7-1,1.3-1.4,2
			c-6.5,11.3-4.8,26.8-8.9,58.9c-4.1,31.7,10.3,36.7,17.5,43.2c0.1,0.1,0.2,0.2,0.3,0.3C955.7,540.7,956.3,544.6,956.6,548.7z"/>
		<path class="st9" d="M1037.9,408.5c-5.8,14-18.1,41.4-27,43.6c-12.1,3-28.6-4.8-30.4-13.5c-1.3-6.6,2.8-19.5,4.9-25.5
			c6.1-1.8,12.4-3.4,18.7-4.8C1016.7,405.5,1028,406,1037.9,408.5z"/>
		<linearGradient id="SVGID_9_" gradientUnits="userSpaceOnUse" x1="1029.1862" y1="363.5499" x2="944.1288" y2="401.6175">
			<stop  offset="0" style="stop-color:#FCAAAA"/>
			<stop  offset="1" style="stop-color:#FFCDAE"/>
		</linearGradient>
		<path class="st39" d="M1024.9,411.1c-0.3,3.1-1.2,8.8-8.9,21.1c-7.7,12.3-30.6,12.1-28,0c1.2-5.3,2.2-12.2,2.9-18.2
			c1-7.7,1.6-14.1,1.6-14.1s-4.4,2.9-9.2,2.3c-0.1,0-0.2,0-0.2,0c-1.6-0.3-3.3-0.9-4.8-2.3c-13.1-11.2-16.8-32.2-17.5-48.7
			c-0.6-13.2,0.8-23.6,0.8-23.6c19.9,19.3,44.6,10.7,48.5,11.6c0.9,0.2,2,0.7,3,1.4c3.3,2.3,6.5,7.4,4.4,15.6
			c-2.7,10.7-5.7,12.5,7.4,23.5C1023.1,389.9,1025.2,408,1024.9,411.1z"/>
		<linearGradient id="SVGID_10_" gradientUnits="userSpaceOnUse" x1="1129.8728" y1="491.6706" x2="1201.8428" y2="702.8223">
			<stop  offset="0" style="stop-color:#FCAAAA"/>
			<stop  offset="1" style="stop-color:#FFCDAE"/>
		</linearGradient>
		<path class="st40" d="M1213.1,475.2c-3.1,9.1-20.2,8.8-37.3,24.2c-17.1,15.4-36.1,117.8-63.4,117.8c-29.8,0-41.8-31.4-46.7-56
			c-0.2-0.9-0.4-1.8-0.5-2.7c-2.6-14.2-2.8-25.4-2.8-25.9c0.1,0.4,0.1,0.7,0.2,1c0,0.3,0.1,0.6,0.2,0.9c0,0.1,0.1,0.2,0.1,0.3
			c0,0.2,0.1,0.5,0.2,0.7c0.2,0.6,0.4,1.1,0.6,1.5c0,0.1,0.1,0.2,0.2,0.3c0.1,0.1,0.2,0.2,0.3,0.3c0.8,0.6,2.5,1.1,4.7,1.4
			c9.5,1.6,29.5,0.6,36-11c0.2-0.3,0.3-0.6,0.5-0.9c0.3,7.9,0.8,21.8,0.5,31.4c1.8-7.9,43-63.1,44.8-69.7c1.8-6.5-7.3-24.2,1.8-23.5
			c9.1,0.8,11.3,16.1,15.5,16.1c4.2,0,15.2-5.8,23.3-7C1199.2,473,1214.7,470.5,1213.1,475.2z"/>
		<linearGradient id="SVGID_11_" gradientUnits="userSpaceOnUse" x1="952.8363" y1="606.3412" x2="788.6726" y2="398.5588">
			<stop  offset="0" style="stop-color:#FCAAAA"/>
			<stop  offset="1" style="stop-color:#FFCDAE"/>
		</linearGradient>
		<path class="st41" d="M951.4,549.7c-1.7,7.5-6.2,25.5-14.5,39.4c0,0,0,0,0,0c-6.1,10.1-14.2,18-24.6,18
			c-24.7,0-44.3-53.8-61.9-116.3c-6.2-22.2-41-51.8-41.3-58.1c-0.3-6.3,34.2,9.1,46.1,15.8c7.1,4.1,4.2-14.2,9.8-17.3
			c5.7-3.1,3.6,35.5,7.4,47.4c3.9,12,33.5,63.4,35.8,70c0.6-2.2,1.3-4.5,2.1-6.9c0.7-2,1.4-4,2-5.9c3.6,3.5,8.1,6.3,13,8.4
			C934.6,548.4,945,550,951.4,549.7z"/>
		<path class="st42" d="M1081.5,1068.2C1081.5,1068.2,1081.5,1068.2,1081.5,1068.2"/>
		<path class="st21" d="M1042.2,692.3c0,0,9.6,18.8,24.4,23.8"/>
		<path class="st21" d="M1061,720.6c0,0,34.5,296.7,44.7,319.7"/>
		<path class="st21" d="M996.2,772.2c0,0-29.1,253.8-35.6,306.1"/>
		<g>
			<path class="st36" d="M975.6,1145.2H874.8c0,0-0.9-3.7-0.3-7.8c0.5-3.7,2.2-7.8,6.6-10.1c9.5-5,46-22.8,53.9-31.1
				c7.9-8.3,6.3-12,10.1-12.2c0,0,21.7-1.7,24.2,1.5c2,2.5,4.5,36.3,5.6,52C975.4,1142.2,975.6,1145.2,975.6,1145.2z"/>
			<path class="st36" d="M905,1112c0,0,8.7,8.3,13.1,9.5c4.4,1.2,26.6-17.9,28.2-23.2c1.6-5.3,3.4-26.3,3.4-26.3s-13.5,0-18.1,0
				c-4.6,0-4.1,24.8-4.1,24.8S902.9,1110.2,905,1112z"/>
			<path class="st36" d="M975.6,1145.2H874.8c0,0-0.9-3.7-0.3-7.8H975C975.4,1142.2,975.6,1145.2,975.6,1145.2z"/>
		</g>
		<g>
			<path class="st36" d="M1140.9,1145.2c0,0-3.6,0-60.8,0c0.2-1.8,0.5-4.5,0.9-7.8c1.3-13.5,3-36.5,0.5-46.4c-3-12-0.1-22.3,0-22.8
				c0.7,1.1,1.3,1.8,1.8,2.1c12.9,8.8,27.5-2.5,31.5-6.1c7.9,12,18.6,59.7,22.9,67.6c1.1,2.1,1.9,3.9,2.4,5.5
				C1141.8,1142.6,1140.9,1145.2,1140.9,1145.2z"/>
			<path class="st36" d="M1084.2,1058.1c0,0,4,26.2,5.2,30.1c1.2,4,7.5,28.6,12.3,31c4.8,2.3,9.5,4.6,10.7-0.9c1.2-5.5,0-34,0-38.4
				c0-4.4,2.6-26.2,0.5-27.8C1110.8,1050.6,1082.9,1049.9,1084.2,1058.1z"/>
			<path class="st36" d="M1140.9,1145.2c0,0-3.6,0-60.8,0c0.2-1.8,0.5-4.5,0.9-7.8h59.2C1141.8,1142.6,1140.9,1145.2,1140.9,1145.2z
				"/>
		</g>
	</g>
	<g>
		<path class="st43" d="M769.7,76.5v132.1c0,19.2-15.5,34.7-34.7,34.7H565.8l-27.6,27.6c-3.9,3.9-10.5,1.1-10.5-4.3v-23.3h-83.2
			c-3.4,0-6.1-2.8-6.1-6.1V105.1c0-19.2,15.5-34.7,34.7-34.7h290.5C767,70.4,769.7,73.1,769.7,76.5z"/>
		<path class="st43" d="M1203.6,103.7v134.5c0,2.8-2.2,5-5,5h-105.9l-27.6,27.6c-3.9,3.9-10.5,1.1-10.5-4.3v-23.3h-149
			c-18.4,0-33.4-14.9-33.4-33.4V75.4c0-2.8,2.2-5,5-5h292.9C1188.6,70.4,1203.6,85.3,1203.6,103.7z"/>
		<path class="st6" d="M1260.3,241.6c0,32-25.9,57.9-57.9,57.9c-31.4,0-57-25-57.9-56.2h54.2c2.8,0,5-2.2,5-5v-54.6
			C1235,184.3,1260.3,210,1260.3,241.6z"/>
		<path class="st3" d="M1203.6,183.6v54.6c0,2.8-2.2,5-5,5h-54.2c0-0.6,0-1.1,0-1.7c0-32,25.9-57.9,57.9-57.9
			C1202.7,183.6,1203.2,183.6,1203.6,183.6z"/>
		<path class="st6" d="M504.4,48.8v21.5h-31.3c-19.2,0-34.7,15.5-34.7,34.7v37.2H411c-13.1,0-23.7-10.6-23.7-23.7V48.8
			c0-13.1,10.6-23.7,23.7-23.7h69.7C493.8,25.1,504.4,35.7,504.4,48.8z"/>
		<path class="st3" d="M504.4,70.4v48.1c0,13.1-10.6,23.7-23.7,23.7h-42.2v-37.2c0-19.2,15.5-34.7,34.7-34.7H504.4z"/>
		<rect x="265.7" y="276.4" class="st6" width="64.2" height="20.6"/>
		<rect x="293.5" y="301.8" class="st3" width="64.2" height="20.6"/>
		
			<rect x="1290" y="564.8" transform="matrix(-1 -1.224647e-16 1.224647e-16 -1 2644.2349 1150.3147)" class="st6" width="64.2" height="20.6"/>
		
			<rect x="1262.2" y="590.2" transform="matrix(-1 -1.224647e-16 1.224647e-16 -1 2588.5781 1201.0699)" class="st3" width="64.2" height="20.6"/>
		<g>
			<line class="st43" x1="507.4" y1="122.4" x2="700.8" y2="122.4"/>
			<line class="st43" x1="507.4" y1="158.3" x2="700.8" y2="158.3"/>
			<line class="st43" x1="507.4" y1="194.2" x2="700.8" y2="194.2"/>
		</g>
		<g>
			<line class="st43" x1="941.3" y1="120.7" x2="1134.6" y2="120.7"/>
			<line class="st43" x1="941.3" y1="156.6" x2="1134.6" y2="156.6"/>
			<line class="st43" x1="941.3" y1="192.6" x2="1134.6" y2="192.6"/>
		</g>
	</g>
	<path class="st1" d="M1637.2,1171.4H58.1c-7.2,0-13-5.8-13-13l0,0c0-7.2,5.8-13,13-13h1579.1c7.2,0,13,5.8,13,13l0,0
		C1650.2,1165.6,1644.4,1171.4,1637.2,1171.4z"/>
</g>
</svg>
